<?xml version="1.0" standalone="no"?>
<!DOCTYPE svg PUBLIC "-//W3C//DTD SVG 1.1//EN" "http://www.w3.org/Graphics/SVG/1.1/DTD/svg11.dtd" >
<!--
2013-9-30: Created.
-->
<svg>
<metadata>
Created by iconfont
</metadata>
<defs>

<font id="iconfont" horiz-adv-x="1024" >
  <font-face
    font-family="iconfont"
    font-weight="500"
    font-stretch="normal"
    units-per-em="1024"
    ascent="896"
    descent="-128"
  />
    <missing-glyph />
    
    <glyph glyph-name="x" unicode="x" horiz-adv-x="1001"
d="M281 543q-27 -1 -53 -1h-83q-18 0 -36.5 -6t-32.5 -18.5t-23 -32t-9 -45.5v-76h912v41q0 16 -0.5 30t-0.5 18q0 13 -5 29t-17 29.5t-31.5 22.5t-49.5 9h-133v-97h-438v97zM955 310v-52q0 -23 0.5 -52t0.5 -58t-10.5 -47.5t-26 -30t-33 -16t-31.5 -4.5q-14 -1 -29.5 -0.5
t-29.5 0.5h-32l-45 128h-439l-44 -128h-29h-34q-20 0 -45 1q-25 0 -41 9.5t-25.5 23t-13.5 29.5t-4 30v167h911zM163 247q-12 0 -21 -8.5t-9 -21.5t9 -21.5t21 -8.5q13 0 22 8.5t9 21.5t-9 21.5t-22 8.5zM316 123q-8 -26 -14 -48q-5 -19 -10.5 -37t-7.5 -25t-3 -15t1 -14.5
t9.5 -10.5t21.5 -4h37h67h81h80h64h36q23 0 34 12t2 38q-5 13 -9.5 30.5t-9.5 34.5q-5 19 -11 39h-368zM336 498v228q0 11 2.5 23t10 21.5t20.5 15.5t34 6h188q31 0 51.5 -14.5t20.5 -52.5v-227h-327z" />
    

    
    <glyph glyph-name="star-on" unicode="&#58915;" d="M982.561 482.918c-1.174 3.625-6.366 6.442-13.895 7.534l-269.154 39.113c-24.021 3.488-51.246 23.273-61.992 45.04l-120.368 243.898c-3.368 6.816-7.65 10.886-11.462 10.886-3.813 0-8.095-4.07-11.464-10.888l-120.363-243.896c-10.747-21.767-37.977-41.552-61.994-45.04l-269.156-39.113c-7.527-1.092-12.721-3.911-13.896-7.534-1.176-3.628 1.369-8.957 6.813-14.263l194.762-189.849c17.383-16.944 27.785-48.956 23.675-72.877l-45.97-268.071c-1.123-6.547-0.454-11.859 1.833-14.573 1.268-1.503 3.103-2.235 5.614-2.235 3.105 0 6.938 1.153 11.094 3.336l240.743 126.569c10.307 5.42 23.913 8.403 38.312 8.403 14.401 0 28.004-2.983 38.314-8.403l240.742-126.569c4.152-2.183 7.987-3.336 11.094-3.336 2.512 0 4.349 0.732 5.613 2.234 2.288 2.713 2.955 8.025 1.835 14.574l-45.972 268.07c-4.106 23.922 6.292 55.934 23.673 72.878l194.763 189.848c5.445 5.307 7.99 10.638 6.81 14.264z"  horiz-adv-x="1024" />

    
    <glyph glyph-name="arrow-down" unicode="&#58880;" d="M959.804 545.343l-124.106 125.077-322.627-325.254-322.644 325.254-124.14-125.077 446.785-450.4 446.733 450.4z"  horiz-adv-x="1024" />

    
    <glyph glyph-name="star-off" unicode="&#58941;" d="M785.352203-37.397493000000054c-4.074805 0-8.151657 0.970094-11.833513 3.007497l-261.311471 142.488225L250.942821-34.38897199999997c-8.343015-4.559852-18.527982-3.8814-26.28669 1.599428-7.760754 5.5279-11.640108 14.987343-10.088776 24.347524l47.578622 285.365306L72.563154 466.529645c-6.594185 6.547113-8.971325 16.295128-6.110161 25.122167 2.814092 8.850575 10.379395 15.397688 19.546172 16.949021l285.512662 47.577598 118.529557 236.989529c4.172019 8.391111 12.803607 13.701047 22.165836 13.701047 9.359158 0 17.992793-5.309936 22.163789-13.701047l118.529557-236.989529 285.511639-47.577598c9.217942-1.551332 16.73208-8.051373 19.593244-16.949021 2.813069-8.875135 0.48607-18.575054-6.109138-25.122167L762.264369 276.92226300000004l47.577598-285.365306c1.50119-9.360182-2.37714-18.819624-10.087753-24.347524C795.487028-35.79704200000003 790.394033-37.397493000000054 785.352203-37.397493000000054zM512.206196 161.25284699999997c4.073782 0 8.196683-0.968048 11.880585-3.006474l228.379431-124.545574-41.268916 247.634983c-1.308809 7.90504 1.257643 16.005532 6.932899 21.63167l164.55787 164.555823-250.398934 41.709961c-7.855922 1.308809-14.549368 6.304589-18.140149 13.408381l-101.942787 203.915249-101.991905-203.915249c-3.542686-7.103792-10.234085-12.050454-18.09103-13.408381l-250.40098-41.709961 164.509774-164.555823c5.672186-5.626137 8.244778-13.675464 6.983041-21.63167l-41.273009-247.634983 228.380454 124.545574C504.058632 160.28479900000002 508.132414 161.25284699999997 512.206196 161.25284699999997z"  horiz-adv-x="1024" />

    
    <glyph glyph-name="flag-on" unicode="&#59023;" d="M823.974849 788.815839c-30.812773-3.918239-69.744457-9.798157-111.198591-9.798157-64.703651 0-123.240859 15.96767-182.625364 28.569686-60.217477 12.883425-122.406864 26.048259-188.227965 26.048259-131.364887 0-175.902242-28.290323-180.382277-31.375591l-9.523911-6.722098 0-7.28287 0-452.92044 0-398.018016 44.820811 0L196.837552 338.700281c16.798595 7.002484 61.056588 19.324114 145.369855 19.324114 61.059658 0 118.199029-23.249517 178.979324-36.413328 61.620429-13.163811 125.483946-26.888394 194.667631-26.888394 41.179888 0 77.587076 5.599532 108.401896 9.243525 16.808828 1.957585 31.647791 3.920286 44.818765 6.163373L869.075023 749.604792l0 46.212508C855.903026 793.302013 840.783677 791.058926 823.974849 788.815839L823.974849 788.815839zM823.974849 788.815839"  horiz-adv-x="1024" />

    
    <glyph glyph-name="flag-off" unicode="&#59024;" d="M823.974849 788.815839c-30.812773-3.918239-69.744457-9.798157-111.198591-9.798157-64.703651 0-123.240859 15.96767-182.625364 28.569686-60.217477 12.883425-122.406864 26.048259-188.226942 26.048259-131.36591 0-175.902242-28.290323-180.382277-31.375591l-9.524934-6.722098 0-7.28287 0-452.92044 0-398.018016L196.836529-62.683389000000034 196.836529 338.700281c16.799618 7.002484 61.057611 19.324114 145.369855 19.324114 61.059658 0 118.200052-23.249517 178.980347-36.413328 61.620429-13.163811 125.483946-26.888394 194.667631-26.888394 41.179888 0 77.587076 5.599532 108.401896 9.243525 16.808828 1.957585 31.647791 3.920286 44.818765 6.163373L869.075023 749.604792l0 46.212508C855.903026 793.302013 840.783677 791.058926 823.974849 788.815839L823.974849 788.815839zM823.974849 349.06023300000004c-30.812773-3.918239-66.940598-9.79918-108.394732-9.79918-64.704674 0-126.044718 13.163811-185.429223 25.765827-60.217477 12.885472-122.127502 37.257555-187.945533 37.257555-71.987544 0-117.359918-8.404414-145.369855-16.808828L196.835506 770.051473c16.799618 7.002484 61.340043 19.044752 145.369855 19.044752 61.059658 0 118.200052-12.042267 178.980347-25.207102 61.620429-13.162788 122.68725-29.692253 191.870936-29.692253 41.172725 0 80.384795 5.600555 111.198591 9.245572L823.974849 349.06023300000004 823.974849 349.06023300000004 823.974849 349.06023300000004zM823.974849 349.06023300000004"  horiz-adv-x="1024" />

    
    <glyph glyph-name="jiantou-copy" unicode="&#58920;" d="M744.63 247.737h-460.527l230.265-311.085zM640.662 465.76v-180.8h-255.247v180.8h255.247zM640.662 651.878v-122.307h-255.247v122.307h255.247zM640.662 832.677v-90.399h-255.247v90.399h255.247z"  horiz-adv-x="1024" />

    
    <glyph glyph-name="ico-love-off" unicode="&#58939;" d="M512.341-12.768c-18.431 0-35.805 6.982-48.939 19.649l-320.526 310.295c-48.613 46.685-75.407 108.858-75.407 175.029s26.814 128.385 75.509 175.172c48.512 46.564 112.999 72.22 181.565 72.22 65.522 0 121.971-23.627 172.594-72.22l2.274-2.497 12.564-14.269 18.045 20.988c48.755 45.752 104.434 67.999 170.138 67.999 68.526 0 132.993-25.636 181.505-72.2 49.426-47.254 75.549-107.823 75.549-175.192 0-66.192-26.793-128.385-75.447-175.111l-320.484-310.213c-13.133-12.665-30.508-19.649-48.939-19.649zM324.544 708.42c-60.488 0-117.282-22.571-159.968-63.533-42.504-40.839-65.928-95.075-65.928-152.681s23.384-111.781 65.867-152.58l320.566-310.336c14.33-13.802 40.19-13.802 54.521 0l320.525 310.255c42.525 40.839 65.907 95.035 65.907 152.661 0 58.661-22.794 111.436-65.928 152.661l-0.020 0.020c-42.686 40.961-99.481 63.533-159.927 63.533-58.783 0-106.524-19.324-150.145-60.813l-0.71-0.71-36.598-44.29-37.714 42.808c-44.838 42.91-92.721 63.005-150.449 63.005z"  horiz-adv-x="1024" />

    
    <glyph glyph-name="ico-love-on" unicode="&#58974;" d="M512.341-12.768c-18.431 0-35.805 6.982-48.939 19.649l-320.526 310.295c-48.613 46.685-75.407 108.858-75.407 175.029s26.814 128.385 75.509 175.172c48.512 46.564 112.999 72.22 181.565 72.22 65.522 0 121.971-23.627 172.594-72.22l2.274-2.497 12.564-14.269 18.045 20.988c48.755 45.752 104.434 67.999 170.138 67.999 68.526 0 132.993-25.636 181.505-72.2 49.426-47.254 75.549-107.823 75.549-175.192 0-66.192-26.793-128.385-75.447-175.111l-320.484-310.213c-13.133-12.665-30.508-19.649-48.939-19.649z"  horiz-adv-x="1024" />

    
    <glyph glyph-name="praise-off" unicode="&#58919;" d="M915.3536 514.7647999999999c-17.3056 10.4448-35.7376 11.9808-45.1584 11.9808-1.6384 0-2.8672 0-3.7888-0.1024L664.1664 526.6432c17.3056 71.8848 24.2688 134.3488 20.8896 185.9584-3.072 46.7968-14.848 85.1968-34.7136 114.176-31.9488 46.4896-73.1136 52.3264-77.7216 52.8384l-1.3312 0.1024-1.3312 0c-30.9248 0-53.3504-9.728-66.6624-29.0816-10.9568-15.872-12.1856-33.5872-12.8-44.032 0-0.7168-0.1024-1.6384-0.2048-2.4576l-1.4336-2.4576 0-6.5536c0-51.3024-18.944-104.8576-56.4224-159.1296-32.256-46.7968-70.5536-82.5344-90.4192-99.6352-5.2224-4.4032-9.728-9.5232-13.5168-14.9504-8.6016 3.6864-17.5104 5.3248-25.1904 5.3248L162.5088 526.7456c-20.992 0-38.1952-10.0352-47.4112-27.4432-6.144-11.6736-6.656-23.1424-6.656-25.2928l0-0.9216 29.0816-470.1184c0.3072-21.1968 10.6496-38.4 28.5696-47.3088 12.0832-6.0416 23.7568-6.3488 25.9072-6.3488l121.6512 0c19.1488 0 30.72 7.5776 36.9664 14.0288 1.9456 1.9456 3.584 4.096 5.12 6.2464 1.9456-1.1264 3.8912-2.2528 5.9392-3.3792 23.552-12.4928 49.3568-16.896 64.3072-16.896l352.6656 0c24.1664 0 45.2608 18.6368 64.512 57.0368 11.6736 23.2448 18.8416 46.2848 19.1488 47.2064l0.1024 0.3072c87.2448 296.6528 88.2688 388.096 88.2688 391.8848C950.6816 485.1712 931.5328 505.0368 915.3536 514.7647999999999zM314.2656-1.7408000000000357c-0.2048 0-0.3072 0-0.512 0L192.1024-1.7408000000000357c-0.4096 0-4.096 0.8192-4.8128 1.6384 0 0-0.512 0.9216-0.512 3.6864l0 0.7168L157.696 473.088c0.2048 1.536 0.9216 3.2768 1.3312 3.6864 0.2048 0.1024 1.3312 0.512 3.4816 0.512l140.4928 0c1.2288 0 4.9152-0.512 7.68-2.048 1.4336-0.8192 3.584-2.048 3.584-9.0112l0-430.08L314.2656-1.7408000000000357zM815.4112 67.78880000000004c-0.512-1.6384-5.7344-17.92-13.9264-35.2256-11.5712-24.3712-20.5824-32.768-23.6544-34.4064L426.0864-1.8432000000000244c-15.1552 0-62.6688 11.4688-62.6688 37.9904l0 430.08 0 9.8304c0 8.704 3.7888 16.9984 10.4448 22.7328 48.8448 41.984 161.792 153.9072 163.9424 292.1472 1.024 4.096 1.2288 8.192 1.536 12.288 0.4096 6.4512 0.9216 14.5408 4.1984 19.3536 4.1984 6.0416 15.1552 7.68 24.3712 7.7824 4.4032-0.9216 24.6784-6.656 41.7792-31.6416 14.848-21.6064 23.6544-51.712 26.2144-89.6 3.3792-51.0976-4.8128-115.2-24.4736-190.5664-2.56-9.9328-0.512-20.2752 5.8368-28.4672 6.2464-8.0896 15.7696-12.8 26.112-12.8l223.8464 0 0.7168 0 1.1264 0.1024c0.2048 0 0.6144 0 1.1264 0 2.7648 0 12.288-0.3072 19.7632-4.9152 4.9152-2.9696 11.5712-9.0112 11.5712-27.0336C901.5296 444.7232 900.608 357.58079999999995 815.4112 67.78880000000004z"  horiz-adv-x="1024" />

    
    <glyph glyph-name="praise-on" unicode="&#58921;" d="M898.3552 529.8176000000001M303.104 501.8624M867.1232 501.9648L643.3792 501.9648c-5.4272 0-9.5232 5.12-8.0896 10.4448C720.1792 838.2464 569.856 855.04 569.856 855.04c-65.1264 0-51.6096-51.5072-56.5248-60.1088 0-130.56-110.1824-238.592-155.4432-277.504-12.0832-10.3424-19.0464-25.4976-19.0464-41.3696l0-9.8304c0 36.0448-35.7376 35.6352-35.7376 35.6352L162.5088 501.8624c-28.9792 0-29.4912-28.4672-29.4912-28.4672l28.9792-469.8112c0-29.9008 29.9008-29.9008 29.9008-29.9008l121.6512 0c25.3952 0 25.088 19.7632 25.088 19.7632l0 42.8032c0-45.9776 62.6688-62.5664 87.2448-62.5664l352.6656 0c33.1776 0 60.2112 87.04 60.2112 87.04 87.2448 296.6528 87.2448 384.9216 87.2448 384.9216C926.1056 506.88 867.1232 501.9648 867.1232 501.9648zM327.4752 86.01599999999996c0 0 0.2048-13.824-17.5104-13.824l-22.3232 0c0 0-20.8896 0-20.8896 20.7872l0.3072 308.8384c0 0 0.3072 19.8656 20.48 19.8656l14.9504 0c0 0 24.8832 0.3072 24.8832-24.7808L327.3728 86.01599999999996z"  horiz-adv-x="1024" />

    
    <glyph glyph-name="jiantou" unicode="&#58893;" d="M512-99.556l398.222 568.889h-170.667v113.778h-455.111v-113.778h-170.667l398.222-568.889zM739.556 753.778h-455.111v-113.778h455.111v113.778zM739.556 867.556h-455.111v-56.89h455.111v56.89z"  horiz-adv-x="1024" />

    
    <glyph glyph-name="icon_caogaox" unicode="&#59045;" d="M864 351.936V619.264C864 665.024 658.88 864 611.712 864H320a160.128 160.128 0 0 1-160-159.872V352h-128v-288.128A160.32 160.32 0 0 1 192.384-96h639.232a160.32 160.32 0 0 1 160.384 159.872V352l-128-0.064z m-640 352.192A96 96 0 0 0 320 800l286.016 0.768c31.168-11.52 174.784-149.952 193.984-186.176v-262.656h-59.264l-0.256-31.808c-0.128-19.968-7.488-195.264-217.664-195.264-67.584 0-117.952 18.048-149.696 53.76-49.024 55.04-40.128 136.768-40.064 137.536l4.16 35.84H224V704.128z m704-640.256c0-52.864-43.264-95.872-96.384-95.872H192.384A96.192 96.192 0 0 0 96 63.872V288h172.608c1.6-38.656 11.84-101.12 56.256-151.36s111.04-75.776 198.016-75.776c218.432 0 267.456 157.824 278.464 227.136H928v-224.128z"  horiz-adv-x="1024" />

    
    <glyph glyph-name="icon_bianji" unicode="&#59046;" d="M936.32 711.168L832.384 810.88A138.24 138.24 0 0 1 640 808.768L148.928 317.12c-47.424-47.488-76.48-136.96-66.112-203.584l18.368-118.336a32 32 0 0 1 31.616-27.072h140.352c65.472 0 153.024 36.48 199.232 83.136l301.76 303.744a32 32 0 0 1-45.376 45.12l-301.76-303.808c-33.92-34.176-105.792-64.192-153.792-64.192H160.192l-14.144 91.264c-7.296 46.976 14.72 115.008 48.128 148.416l491.072 491.648a73.92 73.92 0 0 0 102.848 1.216l103.936-99.712a69.888 69.888 0 0 0 0.576-99.776l-41.344-41.6-95.552 92.8a32 32 0 0 1-44.608-45.952l114.816-111.488c0.448-0.384 1.024-0.576 1.408-0.96 0.64-0.704 0.896-1.6 1.536-2.304a32 32 0 0 1 45.248 0.128l63.808 64.192c25.728 25.92 39.68 60.288 39.232 96.704a131.456 131.456 0 0 1-40.832 94.464z"  horiz-adv-x="1024" />

    
    <glyph glyph-name="icon_beidiao" unicode="&#59047;" d="M794.496 97.408A446.656 446.656 0 0 1 928 416c0 247.04-201.024 448-448 448-247.04 0-448-200.96-448-448 0-246.976 200.96-448 448-448a444.8 444.8 0 0 1 265.472 88l116.8-118.656a31.808 31.808 0 0 1 45.248-0.32 32 32 0 0 1 0.384 45.248l-113.408 115.136zM96 416c0 211.776 172.224 384 384 384s384-172.224 384-384-172.224-384-384-384-384 172.224-384 384zM663.936 362.816c-8.448 5.696-56.128 28.8-91.648 45.76l2.752 4.288c15.936 25.152 42.624 67.264 42.624 108.608 0 91.456-52.672 150.592-134.208 150.592s-134.208-59.136-134.208-150.656c0-43.2 29.056-91.072 43.2-113.728-1.984-1.216-4.544-2.56-7.744-4.096-33.92-16.256-74.88-32.64-74.816-32.64C277.632 359.552 256 330.432 256 298.496v-9.024c0-37.248 30.272-65.344 70.336-65.344h166.336c0.064 0.128 137.216 0 144.832-0.128h0.704c27.52 0 65.792 24.704 65.792 71.104 0 44.352-26.176 59.584-40.064 67.712zM636.096 288c-20.096 0.128-143.424 0.128-143.424 0.128H326.336c-4.224 0-6.336 1.216-6.336 1.344v9.024c0 3.968 4.48 9.664 12.352 12.48 0 0 43.904 17.536 80.064 34.944 16.128 7.744 38.336 20.736 45.824 43.584a50.048 50.048 0 0 1-4.352 40.32 188.928 188.928 0 0 1-5.568 9.28c-8.704 13.824-35.072 55.808-35.072 82.304 0 32.384 9.152 86.592 70.208 86.592s70.208-54.208 70.208-86.592c0-22.784-21.312-56.32-32.704-74.304-7.232-11.456-11.648-18.368-13.888-25.792a56.192 56.192 0 0 1 13.76-56.64 33.152 33.152 0 0 1 9.664-7.104c42.816-20.352 91.328-43.968 97.6-47.744l10.816-6.656c0-0.128 1.088-2.112 1.088-8.064 0-1.984 0-5.632-3.904-7.104z"  horiz-adv-x="1024" />

    
    <glyph glyph-name="icon_beidiao1" unicode="&#59048;" d="M628.096 309.824a3110.208 3110.208 0 0 1-97.6 47.744 30.976 30.976 0 0 0-9.664 7.104 56.192 56.192 0 0 0-13.76 56.64c2.24 7.36 6.656 14.336 13.952 25.792 11.392 17.984 32.704 51.52 32.704 74.304 0 32.32-9.152 86.592-70.208 86.592s-70.272-54.208-70.272-86.592c0-26.56 26.368-68.48 35.072-82.304 2.688-4.288 4.608-7.488 5.568-9.28 7.168-13.44 8.704-27.008 4.352-40.32-7.488-22.848-29.696-35.84-45.824-43.584-36.16-17.344-80.064-34.944-80.064-34.944-7.872-2.816-12.352-8.512-12.352-12.48v-9.024c0-0.128 2.112-1.344 6.336-1.344h166.336s123.328 0 143.488-0.128c3.84 1.472 3.84 5.12 3.84 7.104 0 5.952-1.088 7.936-1.088 8l-10.816 6.72zM794.496 97.408A446.656 446.656 0 0 1 928 416c0 247.04-201.024 448-448 448-247.04 0-448-200.96-448-448 0-246.976 200.96-448 448-448a444.8 444.8 0 0 1 265.472 88l116.8-118.656a31.808 31.808 0 0 1 45.248-0.32 32 32 0 0 1 0.384 45.248l-113.408 115.136zM638.208 224h-0.704c-7.616 0.128-144.768 0.256-144.832 0.128H326.336C286.272 224.128 256 252.224 256 289.472v9.024c0 31.936 21.632 61.056 53.888 72.448-0.064 0 40.96 16.384 74.816 32.64 3.2 1.536 5.76 2.944 7.744 4.096-14.144 22.72-43.2 70.592-43.2 113.728 0 91.52 52.672 150.592 134.208 150.592s134.208-59.072 134.208-150.592c0-41.344-26.688-83.456-42.624-108.608l-2.752-4.224c35.52-16.96 83.2-40.064 91.648-45.76 13.888-8.128 40.064-23.36 40.064-67.712 0-46.4-38.272-71.104-65.792-71.104z"  horiz-adv-x="1024" />

    
    <glyph glyph-name="icon_chakan" unicode="&#59049;" d="M261.056 96H192.128A96.448 96.448 0 0 0 96 192.576V703.424A96.64 96.64 0 0 0 192.512 800h510.976c53.184 0 96.512-43.072 96.512-96v-79.744a32 32 0 0 1 64 0V704c0 88.192-72 160-160.512 160H192.512A160.64 160.64 0 0 1 32 703.424v-510.848A160.512 160.512 0 0 1 192.128 32h68.928a32 32 0 0 1 0 64zM946.432-14.4l-110.848 91.648a276.928 276.928 0 0 1 74.176 187.904A279.168 279.168 0 0 1 630.912 544 279.232 279.232 0 0 1 352 265.152a279.232 279.232 0 0 1 278.848-278.848c57.856 0 111.616 17.728 156.16 48l118.656-97.984a31.808 31.808 0 0 1 45.056 4.352 31.872 31.872 0 0 1-4.288 44.928zM416 265.152A215.04 215.04 0 0 0 630.848 480a215.04 215.04 0 0 0 214.848-214.848 215.04 215.04 0 0 0-214.848-214.848A215.04 215.04 0 0 0 416 265.152z"  horiz-adv-x="1024" />

    
    <glyph glyph-name="icon_caogaox1" unicode="&#59050;" d="M864 351.936V619.264C864 665.024 658.88 864 611.712 864H320a160.128 160.128 0 0 1-160-159.872V352h-128v-288.128A160.32 160.32 0 0 1 192.384-96h639.232a160.32 160.32 0 0 1 160.384 159.872V352l-128-0.064z m-640 352.192A96 96 0 0 0 320 800l286.016 0.768c31.168-11.52 174.784-149.952 193.984-186.176v-262.656h-59.264l-0.256-31.808c-0.128-19.968-7.488-195.264-217.664-195.264-67.584 0-117.952 18.048-149.696 53.76-49.024 55.04-40.128 136.768-40.064 137.536l4.16 35.84H224V704.128z"  horiz-adv-x="1024" />

    
    <glyph glyph-name="icon_chaxun" unicode="&#59051;" d="M474.368 12.608c-229.376 0-416 186.624-416 416s186.624 416 416 416 416-186.624 416-416-186.624-416-416-416z m0 768a352.384 352.384 0 0 1-352-352c0-194.048 157.888-352 352-352 194.048 0 352 157.952 352 352 0 194.112-157.952 352-352 352zM933.632-76.608a31.68 31.68 0 0 0-20.352 7.296l-198.528 164.032a32 32 0 1 0 40.768 49.344l198.528-164.032a32 32 0 0 0-20.416-56.64z"  horiz-adv-x="1024" />

    
    <glyph glyph-name="icon_daiban" unicode="&#59052;" d="M516.8 784C274.176 784 76.8 586.624 76.8 344S274.176-96 516.8-96s440 197.376 440 440S759.424 784 516.8 784z m217.216-520h-224a32 32 0 0 0-32 32v224a32 32 0 0 0 64 0v-192h192a32 32 0 0 0 0-64zM265.344 768.192a119.936 119.936 0 0 1-165.184-174.016l165.184 174.016zM946.752 680a120 120 0 0 1-194.752 93.888l170.496-166.144c15.104 20.096 24.256 45.12 24.256 72.256z"  horiz-adv-x="1024" />

    
    <glyph glyph-name="icon_faqi" unicode="&#59053;" d="M512 864C247.296 864 32 648.704 32 384s215.296-480 480-480 480 215.296 480 480S776.704 864 512 864z m224-512h-192v-192a32 32 0 0 0-64 0v192h-192a32 32 0 0 0 0 64h192v192a32 32 0 0 0 64 0v-192h192a32 32 0 0 0 0-64z"  horiz-adv-x="1024" />

    
    <glyph glyph-name="icon_daiban1" unicode="&#59054;" d="M516.8 784C274.176 784 76.8 586.624 76.8 344S274.176-96 516.8-96s440 197.376 440 440S759.424 784 516.8 784z m0-816C309.504-32 140.8 136.704 140.8 344S309.504 720 516.8 720s376-168.704 376-376S724.096-32 516.8-32zM732.8 328h-192v192a32 32 0 0 1-64 0v-224a32 32 0 0 1 32-32h224a32 32 0 0 1 0 64zM100.16 562.176a32 32 0 0 1 22.336 54.912 88.128 88.128 0 0 0 121.152 127.616 32 32 0 0 1 43.456 46.976A152.128 152.128 0 0 1 32 680c0-41.28 16.256-79.936 45.824-108.736a31.808 31.808 0 0 1 22.336-9.088zM771.968 748.864a88.128 88.128 0 0 0 125.056-121.856 32 32 0 1 1 51.008-38.528 152.128 152.128 0 0 1-215.936 210.496 32 32 0 1 1 39.872-50.112z"  horiz-adv-x="1024" />

    
    <glyph glyph-name="icon_faqi1" unicode="&#59055;" d="M736 416h-192v192a32 32 0 0 1-64 0v-192h-192a32 32 0 0 1 0-64h192v-192a32 32 0 0 1 64 0v192h192a32 32 0 0 1 0 64zM512 864C247.296 864 32 648.704 32 384s215.296-480 480-480 480 215.296 480 480S776.704 864 512 864z m0-896c-229.376 0-416 186.624-416 416S282.624 800 512 800s416-186.624 416-416-186.624-416-416-416z"  horiz-adv-x="1024" />

    
    <glyph glyph-name="icon_cuiban" unicode="&#59058;" d="M832 267.456V416.448c0 183.168-115.2 334.08-261.568 350.144C559.552 798.656 533.12 834.88 480 834.88c-52.928 0-82.368-37.184-95.616-68.736C263.488 747.584 128 593.856 128 415.488v-149.568l-54.464-53.824a31.808 31.808 0 0 1-9.536-22.72V32a32 32 0 0 1 32-32H384c0-52.928 43.072-96 96-96S576-52.928 576 0h288a32 32 0 0 1 32 32v157.632a32 32 0 0 1-9.28 22.528L832 267.456zM480-32A32 32 0 0 0 448 0h64a32 32 0 0 0-32-32zM832 64H128v112l54.464 53.824A31.936 31.936 0 0 1 192 252.544V416.448C192 575.168 322.944 704 408.384 704a31.936 31.936 0 0 1 31.424 26.112c0.128 0.384 8.064 40.768 40.192 40.768 26.752 0 31.744-28.928 32.576-37.44 1.408-16.64 15.296-29.44 31.936-29.44C667.776 704 768 574.976 768 415.488v-161.216a32 32 0 0 1 9.28-22.528l54.72-55.232V64zM854.848 752.576c-51.264 68.224-134.016 106.88-137.472 108.48a32 32 0 1 1-26.752-58.112c0.704-0.32 71.424-33.344 113.024-88.768 41.536-55.488 56-132.352 56.128-133.184a32 32 0 0 1 62.976 11.392c-0.704 3.776-17.088 92.352-67.904 160.192z"  horiz-adv-x="1024" />

    
    <glyph glyph-name="icon_home" unicode="&#59057;" d="M959.744 471.424L576.768 808.576c-34.496 30.208-94.976 30.208-129.472 0L64.256 471.424C46.464 455.808 32 424.064 32 400.704v-379.2c0-47.04 38.976-85.376 86.912-85.376h785.728c48.192 0 87.36 38.336 87.36 85.376V400.704c0 23.36-14.528 55.168-32.256 70.72z m-326.976-471.296H391.296v117.312c0 64.704 54.144 117.312 120.704 117.312s120.768-52.608 120.768-117.312v-117.312z m295.232 21.376c0-12.032-10.24-21.376-23.36-21.376h-207.872v117.312c0 99.968-82.88 181.312-184.768 181.312-101.824 0-184.704-81.344-184.704-181.312v-117.312H118.912c-12.608 0-22.912 9.536-22.912 21.376V400.64a48.64 48.64 0 0 0 10.56 22.656l382.976 337.152C494.976 765.248 503.168 768 512 768s17.088-2.752 22.464-7.552l383.04-337.152a51.2 51.2 0 0 0 10.496-22.656v-379.136z"  horiz-adv-x="1024" />

    
    <glyph glyph-name="icon_mima" unicode="&#59060;" d="M832 480H227.776C226.24 490.624 224 501.184 224 512V576a224.64 224.64 0 0 0 224.64 224h126.72c123.904 0 224.64-100.48 224.64-224a32 32 0 0 1 64 0A288.64 288.64 0 0 1 575.36 864H448.64A288.64 288.64 0 0 1 160 576v-64c0-11.776 0.768-23.424 2.176-35.008A160.128 160.128 0 0 1 32 320v-256c0-88.256 71.808-160 160-160h640c88.256 0 160 71.744 160 160V320c0 88.192-71.744 160-160 160z m96-416c0-52.928-43.072-96-96-96H192c-52.928 0-96 43.072-96 96V320c0 52.928 43.072 96 96 96h640c52.928 0 96-43.072 96-96v-256zM512 352c-88.192 0-160-71.744-160-160s71.808-160 160-160c88.256 0 160 71.744 160 160S600.256 352 512 352z m0-256c-52.928 0-96 43.072-96 96S459.072 288 512 288s96-43.072 96-96-43.072-96-96-96z"  horiz-adv-x="1024" />

    
    <glyph glyph-name="icon_renwu" unicode="&#59061;" d="M636.781714 391.899429A234.349714 234.349714 0 0 1 508.928 822.857143 234.788571 234.788571 0 0 1 274.285714 588.214857a234.057143 234.057143 0 0 1 97.865143-189.878857 419.401143 419.401143 0 0 1-295.350857-400.164571 36.571429 36.571429 0 0 1 73.142857 0 346.112 346.112 0 0 0 345.6 345.673142 346.038857 346.038857 0 0 0 345.6-345.673142 36.571429 36.571429 0 0 1 73.142857 0c0 181.248-116.004571 335.506286-277.504 393.728zM508.928 749.714286c89.014857 0 161.499429-72.484571 161.499429-161.499429a161.645714 161.645714 0 0 0-161.499429-161.499428A161.645714 161.645714 0 0 0 347.428571 588.214857C347.428571 677.229714 419.913143 749.714286 508.928 749.714286z"  horiz-adv-x="1024" />

    
    <glyph glyph-name="icon_moban" unicode="&#59062;" d="M887.744 697.152c0.128 1.152 0.64 2.112 0.64 3.264v19.392C888.384 799.36 820.416 864 736.768 864H199.488C115.904 864 47.872 799.232 47.872 719.68v-559.36c0-79.552 67.904-144.32 151.424-144.32h4.8c14.272-55.104 63.936-96 123.456-96h520.576a128 128 0 0 1 128 128V576c0 56.768-37.248 104.32-88.384 121.152zM199.552 576v-496h-0.256c-48.192 0-87.424 35.968-87.424 80.32v559.36c0 44.288 39.296 80.32 87.616 80.32h537.28c48.384 0 87.616-35.968 87.616-80.192V704H327.552a128 128 0 0 1-128-128z m537.6-448H438.528a32 32 0 0 0 0 64h298.624c17.728 0 32.128-14.4 32.128-32s-14.4-32-32.128-32z m0 168H438.528a32 32 0 0 0 0 64h298.624c17.728 0 32.128-14.4 32.128-32s-14.4-32-32.128-32z m0 168H438.528a32 32 0 0 0 0 64h298.624c17.728 0 32.128-14.336 32.128-32s-14.4-32-32.128-32z"  horiz-adv-x="1024" />

    
    <glyph glyph-name="icon_home11" unicode="&#59063;" d="M359.424-63.872H118.912c-48 0-86.912 38.144-86.912 85.376V400.704c0 23.424 14.4 54.976 32.256 70.72l383.04 337.088c35.776 31.488 94.016 31.168 129.472 0l382.976-337.088c17.792-15.68 32.256-47.616 32.256-70.72v-379.2c0-47.104-38.656-85.376-87.36-85.376H359.424z m-0.128 0.128h305.472v181.184c0 82.304-68.352 149.312-152.768 149.312-84.16 0-152.704-66.816-152.704-149.312v-181.184z"  horiz-adv-x="1024" />

    
    <glyph glyph-name="icon_moban1" unicode="&#59064;" d="M885.568 679.488a32 32 0 0 1 2.816 12.864v19.456c0 79.552-67.968 144.192-151.616 144.192H199.488C115.904 856 47.872 791.232 47.872 711.68v-559.36c0-79.552 67.904-144.32 151.424-144.32h13.824a160.064 160.064 0 0 1 146.432-96h456.576c88.256 0 160 71.744 160 160v464c0 63.232-37.184 117.504-90.56 143.488zM199.296 72c-48.192 0-87.424 35.968-87.424 80.32V711.68c0 44.288 39.296 80.32 87.616 80.32h537.28c48.32 0 87.616-35.968 87.616-80.192v-16.64c-2.816 0.128-5.44 0.832-8.256 0.832H359.552a160.192 160.192 0 0 1-160-160v-464h-0.256z m712.832 0c0-52.928-43.072-96-96-96H359.552c-52.928 0-96 43.072-96 96v464c0 52.928 43.072 96 96 96h456.576c52.928 0 96-43.072 96-96v-464zM737.216 504H438.528a32 32 0 0 1 0-64h298.688a32 32 0 0 1 0 64zM737.216 336H438.528a32 32 0 0 1 0-64h298.688a32 32 0 0 1 0 64zM737.216 168H438.528a32 32 0 0 1 0-64h298.688a32 32 0 0 1 0 64z"  horiz-adv-x="1024" />

    
    <glyph glyph-name="icon_chenggong_lv" unicode="&#59065;" d="M512 896C229.2224 896 0 666.7776 0 384s229.2224-512 512-512 512 229.2224 512 512S794.7776 896 512 896z m318.6432-368.2816L484.7616 169.1904a51.1488 51.1488 0 0 0-69.4016-3.968l-217.7024 179.2512a51.1744 51.1744 0 0 0-6.9632 72.064 51.1488 51.1488 0 0 0 72.064 6.9632l181.1712-149.1712L756.9664 598.784a51.2 51.2 0 0 0 73.6768-71.0656z"  horiz-adv-x="1024" />

    
    <glyph glyph-name="icon_geren" unicode="&#59066;" d="M900.096 671.936L567.232 864.064c-29.248 17.024-81.152 17.024-110.528 0L123.84 671.936c-30.464-17.6-55.232-60.544-55.232-95.744v-384.384c0-35.2 24.768-78.144 55.232-95.68l45.376-26.176c4.032-4.48 9.408-7.36 15.424-8.96l272.064-157.12c14.72-8.448 34.368-13.056 55.296-13.056 20.928 0 40.512 4.608 55.232 13.12l332.864 192.128c30.464 17.6 55.232 60.544 55.232 95.744V576.192c0.064 35.2-24.768 78.144-55.232 95.744zM535.232-40.704c-7.296-4.096-39.296-4.16-46.528 0l-262.848 151.744c2.816 12.672 14.272 24.896 30.848 30.528 2.88 1.152 70.848 27.456 128.192 54.144 36.48 17.024 56.96 35.456 64.32 57.92 5.248 15.936 3.2 32.512-6.016 49.28a196.224 196.224 0 0 1-8.192 13.056c-16.32 25.024-59.584 91.584-59.584 138.176 0 46.144 12.992 153.344 133.312 153.344 120.32 0 133.312-107.264 133.312-153.344 0-40.64-34.88-93.76-55.68-125.504-11.008-16.704-17.6-26.752-20.544-36.096-8.192-25.664-1.728-51.264 18.176-71.808a31.68 31.68 0 0 1 10.624-7.232c71.616-30.016 179.52-76.736 194.944-86.656 3.968-2.624 5.824-10.56 6.4-17.024l-260.736-150.528z m356.16 232.512c0-12.032-12.8-34.24-23.232-40.32l-14.528-8.384a74.432 74.432 0 0 1-29.248 37.376c-24.256 15.68-156.288 71.552-197.76 88.96-0.64 1.28-0.448 1.92-0.256 2.56 2.048 4.608 7.168 12.032 13.44 21.504 24.768 37.76 66.176 100.864 66.176 160.64 0 132.032-77.44 217.344-197.312 217.344-119.872 0-197.312-85.312-197.312-217.344 0-65.6 49.088-140.928 70.016-173.056 2.752-4.288 5.632-7.04 7.168-7.104-0.064-0.064-4.352-8-30.656-20.224-55.104-25.6-123.072-51.968-122.944-51.968a110.848 110.848 0 0 1-64.832-58.496l-14.272 8.256c-10.432 6.08-23.232 28.224-23.232 40.32V576.192c0 12.032 12.8 34.304 23.232 40.256l332.928 192.192A50.56 50.56 0 0 0 512 813.248c11.328 0 19.584-2.432 23.232-4.544l332.864-192.192c10.432-6.016 23.232-28.224 23.232-40.256v-384.448z"  horiz-adv-x="1024" />

    
    <glyph glyph-name="icon_guabbi" unicode="&#59067;" d="M842.944 714.944a48 48 0 0 1-67.904 0l-554.368-554.368a48 48 0 0 1 67.84-67.904L842.88 647.04a48 48 0 0 1 0.064 67.904z"  horiz-adv-x="1024" />

    
    <glyph glyph-name="icon_geren1" unicode="&#59068;" d="M795.904 49.472c1.408 33.152-2.816 70.976-8.96 79.552-12.8 7.68-120.704 54.464-192.32 84.416a31.68 31.68 0 0 0-10.624 7.232c-19.968 20.672-26.368 46.208-18.176 71.872 2.944 9.344 9.536 19.392 20.48 36.032 20.8 31.744 55.68 84.864 55.68 125.504 0 46.144-12.992 153.344-133.312 153.344-120.256 0-133.312-107.264-133.312-153.344 0-46.592 43.328-113.152 59.648-138.176 3.968-6.016 6.784-10.496 8.192-13.056 9.28-16.768 11.264-33.344 6.016-49.28-7.36-22.528-27.84-40.96-64.32-57.92-57.344-26.688-125.312-52.992-128.192-54.144-19.072-6.464-32.064-21.504-32.064-36.16v-57.28c0-3.264-0.96-6.208-1.856-9.152l233.92-135.104c30.144-17.344 80-17.6 110.528 0l230.656 133.184a30.464 30.464 0 0 0-1.984 12.48zM900.096 671.936L567.232 864.064c-30.144 17.408-80 17.6-110.528 0L123.84 671.936c-30.144-17.408-55.232-60.48-55.232-95.744v-384.384c0-34.816 24.768-78.08 55.232-95.68l36.8-21.248v30.528c0 41.856 30.528 81.472 74.304 96.384-0.064 0 67.84 26.304 122.944 51.968 26.304 12.16 30.656 20.096 30.72 20.16-1.6 0.064-4.416 2.816-7.232 7.168-20.928 32.128-69.952 107.456-69.952 173.056 0 132.032 77.44 217.344 197.312 217.344 119.872 0 197.312-85.312 197.312-217.344 0-59.776-41.408-122.88-66.176-160.64-6.336-9.472-11.456-16.896-13.504-21.504a2.944 2.944 0 0 1 0.256-2.56c41.408-17.344 173.504-73.28 197.76-88.96 28.224-18.368 35.072-67.84 35.776-107.52l40 23.104c30.144 17.344 55.232 60.416 55.232 95.68V576.192c0 34.816-24.768 78.08-55.296 95.744z"  horiz-adv-x="1024" />

    
    <glyph glyph-name="icon_rili" unicode="&#59069;" d="M832.192 800H768V832a32 32 0 0 1-64 0v-32H320V832a32 32 0 0 1-64 0v-32H191.744A160.192 160.192 0 0 1 32 639.808v-575.616A160.448 160.448 0 0 1 192.384-96h639.232a160.448 160.448 0 0 1 160.384 160.192V639.808c0 88.32-71.68 160.192-159.808 160.192z m-639.04-64H256v-64a32 32 0 0 1 64 0v64h384v-64a32 32 0 0 1 64 0v64h64.192c52.8 0 95.808-43.136 95.808-96.192V576h-832v63.808c0 53.056 42.944 96.192 97.152 96.192z m638.464-768H192.384A96.384 96.384 0 0 0 96 64.192V512h832v-447.808c0-53.056-43.264-96.192-96.384-96.192zM736 384h-448a32 32 0 0 1 0-64h448a32 32 0 0 1 0 64zM544 192h-256a32 32 0 0 1 0-64h256a32 32 0 0 1 0 64z"  horiz-adv-x="1024" />

    
    <glyph glyph-name="icon_tuichu" unicode="&#59070;" d="M557.248 384l329.344 329.344a32 32 0 0 1-45.248 45.248L512 429.248 182.656 758.656a32 32 0 0 1-45.248-45.248L466.752 384l-329.344-329.344a32 32 0 0 1 45.248-45.312L512 338.752l329.344-329.344a32 32 0 1 1 45.312 45.184L557.248 384z"  horiz-adv-x="1024" />

    
    <glyph glyph-name="icon_jianli" unicode="&#59071;" d="M769.471678 92.607724v-154.879806L959.99944 115.647695v8.831989h-158.015802a32.25596 32.25596 0 0 1-32.51196-31.87196zM660.095815 373.759373c-6.271992 3.839995-54.783932 27.455966-97.599878 47.80794a31.99996 31.99996 0 0 0-9.663988 7.103991 56.38393 56.38393 0 0 0-13.823983 56.639929c2.303997 7.423991 6.655992 14.335982 13.951983 25.727968 11.455986 18.047977 32.767959 51.583936 32.767959 74.367907 0 32.31996-9.151989 86.591892-70.207912 86.591892s-70.271912-54.207932-70.271913-86.591892c0-26.559967 26.367967-68.479914 35.071957-82.303897 2.687997-4.287995 4.607994-7.487991 5.567993-9.279988 7.167991-13.439983 8.703989-27.007966 4.351994-40.31995-7.487991-22.847971-29.695963-35.839955-45.823943-43.583945-36.159955-17.343978-79.9999-34.879956-79.9999-34.879957-7.93599-2.879996-12.415984-8.639989-12.415984-12.543984v-9.023989c0-0.128 2.111997-1.343998 6.335992-1.343998h166.335792s123.327846 0 143.487821-0.128c3.839995 1.471998 3.839995 5.119994 3.839995 7.167991 0 5.887993-1.087999 7.93599-1.087999 7.93599a1602.813996 1602.813996 0 0 1-10.815986 6.655992zM831.6156 895.99872H192.3844A127.87184 127.87184 0 0 1 64.00056 768.510879v-705.023118C64.00056-6.784152 121.024489-64.00008 191.424401-64.00008h514.111357v156.607804c0 52.799934 43.327946 95.80788 96.511879 95.80788H959.99944V767.99888c0 70.655912-57.471928 127.99984-128.38384 127.99984zM575.99992 159.99964H320.00024a31.99996 31.99996 0 0 0 0 63.99992h255.99968a31.99996 31.99996 0 0 0 0-63.99992z m94.207882 127.99984h-0.703999c-7.61599 0.128-144.959819 0.447999-144.831819 0.128H358.336192c-40.06395 0-70.335912 28.095965-70.335912 65.343918v9.023989c0 31.99996 21.631973 61.119924 53.887933 72.383909-0.064 0 40.959949 16.38398 74.815906 32.70396 3.199996 1.535998 5.759993 2.943996 7.74399 4.095994-14.143982 22.719972-43.199946 70.591912-43.199946 113.727858 0 91.519886 52.671934 150.591812 134.207833 150.591812s134.207832-59.071926 134.207832-150.591812c0-41.407948-26.751967-83.519896-42.687947-108.671864l-2.687996-4.159995c35.519956-16.959979 83.199896-40.06395 91.647885-45.759943 13.887983-8.12799 40.06395-23.359971 40.06395-67.647915 0-46.399942-38.271952-71.167911-65.791918-71.167911z"  horiz-adv-x="1024" />

    
    <glyph glyph-name="icon_shezhi" unicode="&#59072;" d="M966.464 516.48c-0.768 0.128-73.088 15.744-118.272 69.312-34.112 40.512-18.944 119.808-10.176 146.88a32.192 32.192 0 0 1-13.824 37.248L688.96 852.032a32.064 32.064 0 0 1-40.896-6.464c-0.64-0.64-62.4-70.912-136.064-70.912-69.504 0-111.616 72.384-111.936 73.024a32 32 0 0 1-43.712 12.16L201.6 772.352a32.064 32.064 0 0 1-11.392-44.864c0.448-0.64 41.792-68.288-0.064-136-42.752-69.12-117.248-73.28-120.192-73.408a32 32 0 0 1-30.912-30.912L32 278.08a32 32 0 0 1 25.472-32.384c28.672-5.952 108.032-31.616 131.136-78.528 28.672-58.176 5.12-132.544 4.928-133.312a32.128 32.128 0 0 1 14.144-37.504l149.184-87.936a32.064 32.064 0 0 1 40.512 6.784c0.512 0.576 53.632 61.312 114.56 61.312 52.416-0.064 112.832-45.504 131.712-62.976a32 32 0 0 1 37.184-4.608l130.944 71.552a32 32 0 0 1 16.064 33.984c-5.056 26.688-13.376 106.176 8.768 153.344 20.8 44.352 102.144 80 131.776 89.984a32 32 0 0 1 21.824 30.016l1.856 197.12a32.192 32.192 0 0 1-25.6 31.552zM512 224A160.192 160.192 0 0 0 352 384c0 88.192 71.808 160 160 160 88.256 0 160-71.808 160-160 0-88.256-71.744-160-160-160z"  horiz-adv-x="1024" />

    
    <glyph glyph-name="icon_wfaqi" unicode="&#59073;" d="M880.576 322.816a81.792 81.792 0 0 1-113.28-1.344l-227.968-226.944c-25.92-25.792-41.28-72.64-35.584-108.8l8.512-54.656a32 32 0 0 1 31.616-27.072h65.216c34.944 0 79.872 18.688 104.576 43.456l140.032 140.16a32 32 0 0 1-45.248 45.248l-140.096-140.224c-12.608-12.608-41.408-24.64-59.264-24.64h-37.76l-4.288 27.584c-2.496 16.064 6.016 42.112 17.472 53.568l227.968 226.944a17.28 17.28 0 0 0 23.936 0.384l48.32-46.144a14.208 14.208 0 0 0 4.48-10.24 15.488 15.488 0 0 0-4.544-11.072l-7.296-7.296-32.256 31.104a31.936 31.936 0 0 1-45.248-0.832 31.808 31.808 0 0 1 0.832-45.184l53.312-51.456 0.448-0.256c0.256-0.32 0.32-0.704 0.64-1.024a32 32 0 0 1 45.248 0l29.632 29.632a78.848 78.848 0 0 1-1.024 112.896l-48.384 46.208zM831.616 864H192.384A160.576 160.576 0 0 1 32 703.616v-639.232A160.512 160.512 0 0 1 192.32-96h163.328a32 32 0 0 1 0 64H192.32c-53.12 0-96.32 43.264-96.32 96.384V703.616c0 53.184 43.2 96.384 96.384 96.384h639.232c53.12 0 96.384-43.2 96.384-96.256v-216.192a32 32 0 0 1 64 0V703.744A160.512 160.512 0 0 1 831.616 864zM224 576h512a32 32 0 0 1 0 64h-512a32 32 0 0 1 0-64zM224 384h384a32 32 0 0 1 0 64h-384a32 32 0 0 1 0-64zM480 256h-256a32 32 0 0 1 0-64h256a32 32 0 0 1 0 64z"  horiz-adv-x="1024" />

    
    <glyph glyph-name="icon_shezhi1" unicode="&#59074;" d="M966.464 516.48c-0.768 0.128-73.088 15.744-118.272 69.312-34.112 40.512-18.944 119.808-10.176 146.88a32.192 32.192 0 0 1-13.824 37.248L688.96 852.032a32.064 32.064 0 0 1-40.896-6.464c-0.64-0.64-62.4-70.912-136.064-70.912-69.504 0-111.616 72.384-111.936 73.024a32 32 0 0 1-43.712 12.16L201.6 772.352a32.064 32.064 0 0 1-11.392-44.864c0.448-0.64 41.792-68.288-0.064-136-42.752-69.12-117.248-73.28-120.192-73.408a32 32 0 0 1-30.912-30.912L32 278.08a32 32 0 0 1 25.472-32.384c28.672-5.952 108.032-31.616 131.136-78.528 28.672-58.176 5.12-132.544 4.928-133.312a32.128 32.128 0 0 1 14.144-37.504l149.184-87.936a32.064 32.064 0 0 1 40.512 6.784c0.512 0.576 53.632 61.312 114.56 61.312 52.416-0.064 112.832-45.504 131.712-62.976a32 32 0 0 1 37.184-4.608l130.944 71.552a32 32 0 0 1 16.064 33.984c-5.056 26.688-13.376 106.176 8.768 153.344 20.8 44.352 102.144 80 131.776 89.984a32 32 0 0 1 21.824 30.016l1.856 197.12a32.192 32.192 0 0 1-25.6 31.552z m-40.128-206.144c-39.552-16.128-119.424-54.976-147.776-115.456-25.984-55.488-21.568-131.2-17.088-169.024l-92.224-50.368c-29.76 23.232-92.032 64.896-157.44 65.024-63.552 0-116.8-39.552-143.872-64.32l-107.2 63.168c6.976 34.624 13.568 98.688-14.656 156.032-30.912 62.72-107.712 93.568-149.248 106.112l5.248 156.928c37.184 8.128 100.544 31.616 142.464 99.392 42.432 68.608 28.48 135.872 14.336 173.376l103.744 58.688c25.152-31.36 75.648-79.232 149.376-79.232 74.368 0 135.552 46.272 165.248 73.664l93.376-56.704c-9.024-41.728-19.072-126.272 28.544-182.976 41.024-48.64 96.448-72.896 128.576-83.584l-1.408-150.72zM512 544A160.192 160.192 0 0 1 352 384c0-88.256 71.808-160 160-160 88.256 0 160 71.744 160 160 0 88.192-71.744 160-160 160z m0-256c-52.928 0-96 43.072-96 96S459.072 480 512 480s96-43.072 96-96S564.928 288 512 288z"  horiz-adv-x="1024" />

    
    <glyph glyph-name="icon_xiaoxi" unicode="&#59076;" d="M831.616 836.608H192.384A160.576 160.576 0 0 1 32 676.224v-639.232c0-30.016 6.72-54.656 20.032-73.152 14.976-20.992 37.312-32.512 62.976-32.512 22.912 0 46.848 9.024 71.104 26.752l78.784 57.344c23.04 16.896 68.16 31.744 96.448 31.744h470.976a160 160 0 0 1 159.616 160V676.608a160.32 160.32 0 0 1-160.32 160zM593.472 280.64H267.648a32 32 0 1 0 0 64h325.888a32 32 0 0 0-0.064-64z m162.88 231.936H267.648a32 32 0 0 0 0 64h488.768a32 32 0 1 0-0.064-64z"  horiz-adv-x="1024" />

    
    <glyph glyph-name="icon_wfaqi1" unicode="&#59077;" d="M832 864H192A160.192 160.192 0 0 1 32 704v-640c0-88.256 71.808-160 160-160h640c88.256 0 160 71.744 160 160V704c0 88.192-71.744 160-160 160zM224 640h512a32 32 0 0 0 0-64h-512a32 32 0 0 0 0 64z m0-192h384a32 32 0 0 0 0-64h-384a32 32 0 0 0 0 64z m256-256h-256a32 32 0 0 0 0 64h256a32 32 0 0 0 0-64z m449.856 35.84l-29.632-29.632a32 32 0 0 0-45.248 0c-0.32 0.32-0.384 0.704-0.64 1.024l-0.448 0.256-53.248 51.392a32 32 0 1 0 44.416 46.016l32.256-31.104 7.296 7.296a15.36 15.36 0 0 1 4.544 11.072 14.464 14.464 0 0 1-4.48 10.24l-48.256 46.08a17.28 17.28 0 0 1-24-0.32l-227.968-226.944c-11.52-11.456-19.968-37.504-17.472-53.568l4.288-27.584h37.824c17.792 0 46.656 12.032 59.264 24.64l140.096 140.224a32 32 0 0 0 45.248-45.248l-140.032-140.16c-24.704-24.768-69.632-43.456-104.576-43.456H543.936a32 32 0 0 0-31.616 27.072l-8.512 54.656c-5.632 36.16 9.664 83.008 35.584 108.8l227.968 226.944a81.728 81.728 0 0 0 113.28 1.28l48.256-46.08c15.424-14.656 24.128-34.432 24.384-55.744 0.128-21.632-8.064-41.856-23.424-57.152z"  horiz-adv-x="1024" />

    
    <glyph glyph-name="icon_xiaoxi1" unicode="&#59078;" d="M831.616 836.608H192.384A160.576 160.576 0 0 1 32 676.224v-639.232c0-30.016 6.72-54.656 20.032-73.152 14.976-20.992 37.312-32.512 62.976-32.512 22.912 0 46.848 9.024 71.104 26.752l78.784 57.344c23.04 16.896 68.16 31.744 96.448 31.744h470.976a160 160 0 0 1 159.616 160V676.608a160.32 160.32 0 0 1-160.32 160z m96.384-629.376c0-52.992-42.88-96-95.616-96h-471.04c-42.24 0-99.968-19.008-134.208-44.032l-78.72-57.344c-19.648-14.528-36.224-19.968-44.352-8.768-3.008 4.288-8.064 14.528-8.064 35.904V676.224c0 53.184 43.2 96.384 96.384 96.384h639.232c53.12 0 96.384-43.072 96.384-96v-469.376zM756.352 576.576H267.648a32 32 0 0 1 0-64h488.768a32 32 0 1 1-0.064 64zM593.472 344.64H267.648a32 32 0 0 1 0-64h325.888a32 32 0 1 1-0.064 64z"  horiz-adv-x="1024" />

    
    <glyph glyph-name="icon_yiban" unicode="&#59079;" d="M831.616 811.648H736V832a32 32 0 0 1-64 0v-20.352h-320V832a32 32 0 0 1-64 0v-20.352H192.384A160.256 160.256 0 0 1 32 651.52v-575.68a160.128 160.128 0 0 1 160.384-160.192h639.232a160.192 160.192 0 0 1 160.384 160.192V651.456a160.192 160.192 0 0 1-160.384 160.192zM928 75.84c0-53.12-43.136-96.192-96.384-96.192H192.384A96.192 96.192 0 0 0 96 75.84V651.456c0 53.12 43.072 96.128 96.384 96.128H288V670.08a32 32 0 0 1 64 0V747.648h320v-77.504a32 32 0 0 1 64 0V747.648h95.616c53.312 0 96.384-42.944 96.384-96.128v-575.68zM775.936 493.184l-260.416-260.416c-11.584-11.584-28.032-10.624-38.784 2.304L344.64 394.752a32 32 0 0 1-49.344-40.832l132.096-159.68c34.688-41.856 94.976-45.12 133.312-6.72l260.416 260.416a32 32 0 0 1-45.184 45.248z"  horiz-adv-x="1024" />

    
    <glyph glyph-name="icon_yiban1" unicode="&#59080;" d="M831.616 800h-4.736v-141.504c0-53.312-43.392-96.704-96.704-96.704s-96.704 43.328-96.704 96.704V800H390.528v-141.504c0-53.312-43.392-96.704-96.704-96.704S197.12 605.12 197.12 658.496V800h-4.736A160.256 160.256 0 0 1 32 639.808v-575.616A160.128 160.128 0 0 1 192.384-96h639.232a160.192 160.192 0 0 1 160.384 160.192V639.808A160.128 160.128 0 0 1 831.616 800z m-42.432-363.712l-260.416-260.416c-17.408-17.408-39.872-26.88-63.488-26.88l-4.224 0.128a90.24 90.24 0 0 0-65.6 33.472L263.296 342.336a31.936 31.936 0 0 0 4.288 44.992 32.064 32.064 0 0 0 45.056-4.224l132.096-159.744a26.752 26.752 0 0 1 19.328-10.304 25.472 25.472 0 0 1 19.456 8.064l260.416 260.416a32 32 0 0 0 45.248-45.248zM730.176 625.728a32.704 32.704 0 0 1 32.704 32.704v161.92a32.704 32.704 0 0 1-65.408 0v-161.92c0-18.048 14.656-32.704 32.704-32.704zM293.824 625.728a32.64 32.64 0 0 1 32.704 32.704v161.92a32.704 32.704 0 0 1-65.408 0v-161.92c0-18.048 14.656-32.704 32.704-32.704z"  horiz-adv-x="1024" />

    
    <glyph glyph-name="icon_shenpi" unicode="&#59081;" d="M503.104-4.224h-366.72c-24.192 0-52.544 10.752-52.544 41.152v19.776c0 25.856 21.12 51.968 51.52 62.656a3143.232 3143.232 0 0 1 174.016 75.52c46.336 22.016 72.128 45.248 81.216 72.896 9.28 28.224-2.944 51.072-6.976 58.624a452.864 452.864 0 0 1-11.008 17.92c-22.72 35.968-83.2 131.456-83.2 200.384 0 142.528 72.256 227.584 193.344 227.584s193.408-85.056 193.408-227.584c0-60.864-48.896-137.344-78.016-182.976-15.616-24.32-23.232-36.48-26.496-47.36-9.664-31.616-2.048-61.76 22.08-87.232a32.128 32.128 0 0 1 45.248-1.28 32.128 32.128 0 0 1 1.28 45.248c-10.368 11.008-9.408 17.92-7.488 24 1.728 4.608 11.52 19.904 19.392 32.128 33.024 51.584 88.128 137.92 88.128 217.472 0 179.84-98.624 291.584-257.408 291.584-158.72 0-257.344-111.744-257.344-291.584 0-87.552 65.28-190.656 93.12-234.624 4.032-6.464 7.104-11.328 8.576-13.952 3.328-6.272 2.752-7.744 2.56-8.512-0.512-1.472-5.952-15.104-47.936-35.136-75.712-36.224-168.896-73.28-168.832-73.28C58.176 160.064 19.84 109.568 19.84 56.576v-19.776c0-60.992 49.024-105.152 116.544-105.152h366.72a32 32 0 1 1 0 64.128zM979.776 313.6l-48.256 46.08a81.792 81.792 0 0 1-113.28-1.28l-227.904-226.944c-25.984-25.728-41.28-72.64-35.648-108.736l8.512-54.656a32.128 32.128 0 0 1 31.616-27.136h65.28c34.88 0 79.872 18.752 104.512 43.52l140.096 140.096a32 32 0 0 1-45.248 45.248l-140.096-140.224c-12.608-12.608-41.472-24.64-59.264-24.64h-37.824l-4.224 27.52c-2.496 16.128 6.016 42.24 17.472 53.632l227.904 227.008a17.28 17.28 0 0 0 24 0.256l48.256-46.016a14.08 14.08 0 0 0 4.48-10.24 15.744 15.744 0 0 0-4.48-11.136l-7.36-7.232L896 269.888a31.872 31.872 0 0 1-45.248-0.896 31.808 31.808 0 0 1 0.896-45.12l53.248-51.52 0.512-0.256c0.256-0.256 0.256-0.64 0.64-1.024a32 32 0 0 1 45.248 0l29.632 29.632c15.232 15.36 23.488 35.648 23.232 57.152a77.12 77.12 0 0 1-24.384 55.744z"  horiz-adv-x="1024" />

    
    <glyph glyph-name="icon_danxuan" unicode="&#59082;" d="M512 384m-477.866667 0a477.866667 477.866667 0 1 1 955.733334 0 477.866667 477.866667 0 1 1-955.733334 0ZM512-110.933333C239.104-110.933333 17.066667 111.104 17.066667 384S239.104 878.933333 512 878.933333 1006.933333 656.896 1006.933333 384 784.896-110.933333 512-110.933333z m0 955.733333C257.911467 844.8 51.2 638.088533 51.2 384S257.911467-76.8 512-76.8 972.8 129.911467 972.8 384 766.088533 844.8 512 844.8z"  horiz-adv-x="1024" />

    
    <glyph glyph-name="icon_danxuan_xuanzhong" unicode="&#59083;" d="M512 384m-477.866667 0a477.866667 477.866667 0 1 1 955.733334 0 477.866667 477.866667 0 1 1-955.733334 0ZM512-110.933333C239.104-110.933333 17.066667 111.104 17.066667 384S239.104 878.933333 512 878.933333 1006.933333 656.896 1006.933333 384 784.896-110.933333 512-110.933333z m0 955.733333C257.911467 844.8 51.2 638.088533 51.2 384S257.911467-76.8 512-76.8 972.8 129.911467 972.8 384 766.088533 844.8 512 844.8zM512 571.733333A187.938133 187.938133 0 0 1 324.266667 384c0-103.492267 84.206933-187.733333 187.733333-187.733333 103.492267 0 187.733333 84.241067 187.733333 187.733333 0 103.5264-84.241067 187.733333-187.733333 187.733333z"  horiz-adv-x="1024" />

    
    <glyph glyph-name="icon_jiaona" unicode="&#59084;" d="M870.656 691.392a29.76 29.76 0 0 1 1.792 8.96v19.456C872.448 799.36 804.48 864 720.832 864H183.616C100.032 864 32 799.232 32 719.68v-559.36c0-79.552 67.904-144.32 151.424-144.32h22.144a160.064 160.064 0 0 1 146.432-96h456.512c88.256 0 160 71.744 160 160V544a160.192 160.192 0 0 1-97.856 147.392zM183.424 80c-48.192 0-87.424 35.968-87.424 80.32v559.36c0 44.288 39.296 80.32 87.616 80.32h537.28c48.32 0 87.616-35.968 87.616-80.192V704H352A160.192 160.192 0 0 1 192 544v-464h-8.576z m721.088 0c0-52.928-43.072-96-96-96H352c-52.928 0-96 43.072-96 96V544C256 596.928 299.072 640 352 640h456.512c52.928 0 96-43.072 96-96v-464zM726.656 457.344a32 32 0 0 1-45.248 45.248L576 397.248 470.656 502.656a32 32 0 0 1-45.248-45.248L544 338.752V256H448a32 32 0 0 1 0-64h96v-96a32 32 0 0 1 64 0V192H704a32 32 0 0 1 0 64H608V338.752l118.656 118.592z"  horiz-adv-x="1024" />

    
    <glyph glyph-name="icon_jiantoub_left_h" unicode="&#59085;" d="M193.536 368.201143L540.525714 799.963429a36.571429 36.571429 0 1 1-57.051428 45.787428l-365.714286-455.168a36.498286 36.498286 0 0 1 0.438857-46.299428l365.714286-437.394286a36.425143 36.425143 0 0 1 51.492571-4.681143 36.571429 36.571429 0 0 1 4.608 51.492571L193.536 368.201143zM832.658286-46.299429L486.107429 368.201143l346.916571 431.762286a36.571429 36.571429 0 1 1-56.978286 45.787428l-365.714285-455.168a36.498286 36.498286 0 0 1 0.438857-46.299428l365.714285-437.394286a36.425143 36.425143 0 0 1 51.492572-4.681143 36.571429 36.571429 0 0 1 4.681143 51.492571z"  horiz-adv-x="1024" />

    
    <glyph glyph-name="icon_jiantou_right_l" unicode="&#59086;" d="M341.333333-21.333333a63.829333 63.829333 0 0 0-45.226666 109.226666l296.021333 295.68-296.106667 296.533334a64.085333 64.085333 0 0 0 90.624 90.453333l341.333334-341.845333a64 64 0 0 0 0-90.453334l-341.333334-340.821333a64 64 0 0 0-45.312-18.773333z"  horiz-adv-x="1024" />

    
    <glyph glyph-name="icon_jianli1" unicode="&#59087;" d="M831.616 896H192.384A128.128 128.128 0 0 1 64 768.512v-705.024C64-6.784 121.152-64 191.424-64h576.192L960 115.712V768c0 70.592-57.536 128-128.384 128zM128 63.488V768.512A64 64 0 0 0 192.384 832h639.232C867.136 832 896 803.264 896 768v-544h-126.656c-52.928 0-96-43.2-96-96.32V0h-481.92A63.488 63.488 0 0 0 128 63.488z m614.4-63.488h-4.992v127.68c0 17.792 14.4 32.32 32 32.32H896v-16.576L742.4 0zM736 359.168c0 44.288-26.176 59.584-40.064 67.648-8.448 5.696-56.128 28.8-91.648 45.76l2.688 4.224c15.936 25.152 42.688 67.264 42.688 108.672 0 91.456-52.672 150.592-134.208 150.592s-134.208-59.136-134.208-150.656c0-43.2 29.056-91.072 43.2-113.728-1.984-1.216-4.544-2.56-7.744-4.096-33.856-16.256-74.88-32.704-74.816-32.704-32.256-11.264-53.888-40.384-53.888-72.384v-9.024c0-37.248 30.272-65.344 70.336-65.344h166.336c-0.064 0.32 137.216 0 144.832-0.128h0.704c27.52 0 65.792 24.768 65.792 71.168z m-67.904-7.168c-20.096 0.128-143.488 0.128-143.488 0.128H358.336c-4.224 0-6.4 1.28-6.336 1.344v9.024c0 3.904 4.48 9.664 12.416 12.48 0 0 43.904 17.536 80 34.88 16.128 7.808 38.336 20.8 45.824 43.648a50.048 50.048 0 0 1-4.352 40.32 188.928 188.928 0 0 1-5.568 9.28c-8.704 13.824-35.072 55.808-35.072 82.304 0 32.384 9.152 86.592 70.208 86.592s70.208-54.208 70.208-86.592c0-22.784-21.312-56.32-32.768-74.368-7.232-11.392-11.584-18.304-13.888-25.728a56.384 56.384 0 0 1 13.824-56.64 32.832 32.832 0 0 1 9.664-7.104c42.816-20.352 91.328-43.968 97.6-47.808l10.816-6.656s1.088-2.048 1.088-7.936c0-2.048 0-5.696-3.904-7.168zM576 224H320a32 32 0 0 1 0-64h256a32 32 0 0 1 0 64z"  horiz-adv-x="1024" />

    
    <glyph glyph-name="icon_jiaona1" unicode="&#59088;" d="M872.32 699.52c0 0.256 0.192 0.512 0.192 0.832v19.456C872.512 799.36 804.544 864 720.896 864H183.616C100.032 864 32 799.232 32 719.68v-559.36c0-79.552 67.904-144.32 151.424-144.32h13.12c14.272-55.104 63.936-96 123.456-96h520.512a128 128 0 0 1 128 128V576c0 59.648-40.96 109.312-96.192 123.52zM704 256a32 32 0 0 0 0-64H608v-96a32 32 0 0 0-64 0V192H448a32 32 0 0 0 0 64h96V338.752L425.344 457.344a32 32 0 0 0 45.248 45.248L576 397.248l105.344 105.344a32 32 0 0 0 45.248-45.248L608 338.752V256H704zM352 704H320a128 128 0 0 1-128-128v-496h-8.576c-48.192 0-87.424 35.968-87.424 80.32v559.36c0 44.288 39.296 80.32 87.616 80.32h537.28c48.32 0 87.616-35.968 87.616-80.192V704H352z"  horiz-adv-x="1024" />

    
    <glyph glyph-name="icon_miansi" unicode="&#59089;" d="M385.664 371.328c-22.72 35.968-83.2 131.456-83.2 200.384 0 142.528 72.256 227.584 193.344 227.584S689.28 714.24 689.28 571.776c0-32.384-13.632-72.768-41.728-123.328a32 32 0 0 1 56-31.104c33.472 60.288 49.728 110.784 49.728 154.368 0 179.84-98.624 291.584-257.408 291.584-158.72 0-257.344-111.744-257.344-291.584 0-87.552 65.28-190.656 93.12-234.624 4.096-6.528 7.168-11.328 8.64-14.016 3.328-6.208 2.752-7.744 2.56-8.512-0.512-1.408-6.016-15.04-48-35.072-75.712-36.16-168.896-73.28-168.832-73.28-54.848-19.136-93.184-69.568-93.184-122.624v-19.776c0-60.928 49.024-105.152 116.544-105.152H369.28a32 32 0 0 1 0 64H149.376c-24.192 0-52.544 10.752-52.544 41.152v19.776c0 25.856 21.12 51.968 51.52 62.656a3255.552 3255.552 0 0 1 174.016 75.52c46.336 22.08 72.128 45.248 81.216 72.96 9.28 28.352-2.944 51.2-6.976 58.688a390.4 390.4 0 0 1-10.944 17.92zM804.8 354.112H641.92a160.064 160.064 0 0 1-159.872-159.872v-162.88c0-32.192 8.768-59.904 25.344-80 17.536-21.312 42.944-33.088 71.488-33.088 18.752 0 38.208 4.928 58.752 14.976v-0.064c25.216 13.184 70.016 23.872 103.488 23.872h0.256l67.328-1.92a156.224 156.224 0 0 1 155.904 156.16V193.92a160.128 160.128 0 0 1-159.808 160.192z"  horiz-adv-x="1024" />

    
    <glyph glyph-name="icon_qudao" unicode="&#59090;" d="M831.616 800H192.384A160.128 160.128 0 0 1 32 640.512v-449.024A159.872 159.872 0 0 1 191.936 32H512v-32H352a32 32 0 0 1 0-64h384a32 32 0 0 1 0 64H576v32h255.744a160 160 0 0 1 160.256 159.488V640.512A160.128 160.128 0 0 1 831.616 800z m96.384-608.512a96 96 0 0 0-96.256-95.488H191.936A95.808 95.808 0 0 0 96 191.488V640.512A96 96 0 0 0 192.384 736h639.232A96 96 0 0 0 928 640.512v-449.024zM736 288V511.744A128.256 128.256 0 0 1 608 640c-70.592 0-128-57.408-128-128v-192a63.36 63.36 0 0 0-64-64 64 64 0 0 0-64 63.744V544h31.424c35.712 0 44.608 19.968 19.072 45.504l-36.992 36.992a64 64 0 0 1-91.008 0l-36.992-36.992c-25.152-25.152-17.152-45.504 19.072-45.504H288v-224.256A128 128 0 0 1 544 320V512c0 35.264 28.672 64 64 64s64-28.864 64-64.256V288h-31.36c-35.776 0-44.608-19.968-19.136-45.504l36.992-36.992a64 64 0 0 1 91.008 0l36.992 36.992c25.152 25.152 17.152 45.504-19.136 45.504h-31.36z"  horiz-adv-x="1024" />

    
    <glyph glyph-name="icon_miansi1" unicode="&#59091;" d="M385.664 371.328c-22.72 35.968-83.2 131.456-83.2 200.384 0 142.528 72.256 227.584 193.344 227.584S689.28 714.24 689.28 571.776c0-32.384-13.632-72.768-41.728-123.328a32 32 0 0 1 56-31.104c33.472 60.288 49.728 110.784 49.728 154.368 0 179.84-98.624 291.584-257.408 291.584-158.72 0-257.344-111.744-257.344-291.584 0-87.552 65.28-190.656 93.12-234.624 4.096-6.528 7.168-11.328 8.64-14.016 3.328-6.208 2.752-7.744 2.56-8.512-0.512-1.408-6.016-15.04-48-35.072-75.712-36.16-168.896-73.28-168.832-73.28-54.848-19.136-93.184-69.568-93.184-122.624v-19.776c0-60.928 49.024-105.152 116.544-105.152H369.28a32 32 0 0 1 0 64H149.376c-24.192 0-52.544 10.752-52.544 41.152v19.776c0 25.856 21.12 51.968 51.52 62.656a3255.552 3255.552 0 0 1 174.016 75.52c46.336 22.08 72.128 45.248 81.216 72.96 9.28 28.352-2.944 51.2-6.976 58.688a390.4 390.4 0 0 1-10.944 17.92zM804.8 354.112H641.92a160.064 160.064 0 0 1-159.872-159.872v-162.88c0-32.192 8.768-59.904 25.344-80 17.536-21.312 42.944-33.088 71.488-33.088 18.752 0 38.208 4.928 58.752 14.976v-0.064c25.216 13.184 70.016 23.872 103.488 23.872h0.256l67.328-1.92a156.224 156.224 0 0 1 155.904 156.16V193.92a160.128 160.128 0 0 1-159.808 160.192z m95.808-242.752c0-51.712-40.32-92.096-94.912-92.096h-0.128l-67.712 1.92c-38.656 0-92.224-12.544-126.592-29.568v0.064c-23.488-12.224-43.712-12.672-54.464 0.32-6.912 8.448-10.816 22.464-10.816 39.36v162.88a96 96 0 0 0 95.872 95.872h162.88c52.8 0 95.808-43.136 95.808-96.128v-82.624z"  horiz-adv-x="1024" />

    
    <glyph glyph-name="icon_qudao1" unicode="&#59092;" d="M831.616 800H192.384A160.128 160.128 0 0 1 32 640.512v-449.024A159.872 159.872 0 0 1 191.936 32H512v-32H352a32 32 0 0 1 0-64h384a32 32 0 0 1 0 64H576v32h255.744a160 160 0 0 1 160.256 159.488V640.512A160.128 160.128 0 0 1 831.616 800z m-45.12-557.504l-36.992-36.992a64 64 0 0 0-91.008 0l-36.992 36.992c-25.536 25.536-16.64 45.504 19.136 45.504h31.36V511.744c0 35.392-28.672 64.256-64 64.256s-64-28.736-64-64v-192a128 128 0 0 0-256-0.256V544h-31.424c-36.224 0-44.224 20.352-19.072 45.504l36.992 36.992a64 64 0 0 0 91.008 0l36.992-36.992c25.536-25.536 16.576-45.504-19.072-45.504H352v-224.256a64 64 0 0 1 64-63.744 63.36 63.36 0 0 1 64 64V512c0 70.592 57.408 128 128 128s128-57.536 128-128.256V288h31.36c36.288 0 44.288-20.352 19.136-45.504z"  horiz-adv-x="1024" />

    
    <glyph glyph-name="icon_ruzhi" unicode="&#59093;" d="M565.824 356.608c-8.192-25.728-1.792-51.264 18.176-71.872a32 32 0 1 1 46.016 44.48c-4.352 4.48-3.968 5.632-3.648 6.784 2.048 4.544 7.168 11.968 13.44 21.44 24.768 37.76 66.176 100.928 66.176 160.704 0 132.032-77.44 217.344-197.312 217.344-119.872 0-197.312-85.312-197.312-217.344 0-65.536 49.024-140.864 69.952-172.992 2.752-4.288 2.816-6.72 7.296-7.232-0.064-0.064-4.416-8-30.72-20.224-55.104-25.6-123.072-51.968-122.944-51.968-43.776-14.848-74.304-54.464-74.304-96.384v-14.016c0-48.832 39.552-84.224 93.952-84.224h268.992a32 32 0 0 1 0 64H254.656c-3.072 0-29.952 0.576-29.952 20.224v14.016c0 14.656 12.992 29.696 32.064 36.16 2.88 1.152 70.848 27.456 128.192 54.144 36.48 17.024 56.96 35.456 64.32 57.92 5.248 15.936 3.2 32.512-6.016 49.28a255.872 255.872 0 0 1-8.256 13.184c-16.32 25.088-59.584 91.584-59.584 138.112 0 46.144 12.992 153.344 133.312 153.344 120.32 0 133.312-107.264 133.312-153.344 0-40.64-34.88-93.824-55.744-125.568-10.944-16.64-17.536-26.752-20.48-35.968zM800 256h-192a32 32 0 0 1 0-64h192a32 32 0 0 1 0 64zM800 160h-192a32 32 0 0 1 0-64h192a32 32 0 0 1 0 64zM832 864H192A160.192 160.192 0 0 1 32 704v-640c0-88.256 71.808-160 160-160h640c88.256 0 160 71.744 160 160V704c0 88.192-71.744 160-160 160zM928 64c0-52.928-43.072-96-96-96H192c-52.928 0-96 43.072-96 96V704c0 52.928 43.072 96 96 96h640c52.928 0 96-43.072 96-96v-640z"  horiz-adv-x="1024" />

    
    <glyph glyph-name="icon_sanjiao_down_he" unicode="&#59094;" d="M512 128l426.666667 426.666667H85.333333z"  horiz-adv-x="1024" />

    
    <glyph glyph-name="icon_ruzhi1" unicode="&#59095;" d="M832 864H192A160.192 160.192 0 0 1 32 704v-640c0-88.256 71.808-160 160-160h640c88.256 0 160 71.744 160 160V704c0 88.192-71.744 160-160 160zM508.672 671.488c-120.256 0-133.312-107.264-133.312-153.344 0-46.528 43.264-113.024 59.584-138.112 3.968-6.08 6.848-10.624 8.256-13.184 9.28-16.704 11.264-33.28 6.08-49.216-7.36-22.528-27.84-40.96-64.32-57.92-57.344-26.688-125.312-52.992-128.192-54.144-19.136-6.528-32.128-21.568-32.128-36.224v-14.016c0-19.712 26.88-20.224 29.952-20.224h268.992a32 32 0 0 0 0-64H254.656c-54.464 0-93.952 35.456-93.952 84.224v14.016c0 41.856 30.528 81.472 74.304 96.384-0.064 0 67.84 26.304 122.944 51.968 26.24 12.224 30.592 20.16 30.656 20.224-4.48 0.512-4.48 2.944-7.232 7.168-20.992 32.192-69.952 107.52-69.952 173.056 0 132.032 77.44 217.344 197.312 217.344 119.872 0 197.312-85.312 197.312-217.344 0-59.776-41.408-122.944-66.176-160.704-6.336-9.472-11.456-16.896-13.504-21.44-0.32-1.152-0.704-2.304 3.648-6.72a32 32 0 1 0-46.016-44.544c-19.968 20.608-26.368 46.144-18.176 71.872 2.944 9.216 9.536 19.328 20.416 35.904 20.864 31.808 55.744 84.928 55.744 125.568 0 46.144-12.992 153.408-133.312 153.408zM800 96h-192a32 32 0 0 0 0 64h192a32 32 0 0 0 0-64z m0 96h-192a32 32 0 0 0 0 64h192a32 32 0 0 0 0-64z"  horiz-adv-x="1024" />

    
    <glyph glyph-name="icon_shouji" unicode="&#59096;" d="M529.536 74.816a52.224 52.224 0 0 1 0-104.32 52.224 52.224 0 0 1 0 104.32zM787.648 896H271.424c-43.456 0-78.72-35.328-78.72-78.72v-866.368c0-43.456 35.264-78.784 78.72-78.784h516.224c43.456 0 78.72 35.328 78.72 78.72V817.28c0 43.456-35.264 78.784-78.72 78.784zM271.424 843.52h516.224a26.24 26.24 0 0 0 26.24-26.24v-649.088H245.184V817.216a26.24 26.24 0 0 0 26.24 26.24z m516.224-918.912H271.424a26.24 26.24 0 0 0-26.24 26.24v160.32h568.704v-160.256a26.24 26.24 0 0 0-26.24-26.24z"  horiz-adv-x="1024" />

    
    <glyph glyph-name="icon_shouji1" unicode="&#59097;" d="M508.202667 22.613333m-52.181334 0a52.181333 52.181333 0 1 1 104.362667 0 52.181333 52.181333 0 1 1-104.362667 0ZM766.336 896h-516.266667a78.805333 78.805333 0 0 1-78.72-78.762667V-49.066667c0-43.477333 35.328-78.805333 78.762667-78.805333h516.266667a78.848 78.848 0 0 1 78.762666 78.805333V817.237333A78.933333 78.933333 0 0 1 766.336 896z m26.24-945.066667c0-14.506667-11.776-26.282667-26.24-26.282666h-516.266667a26.282667 26.282667 0 0 0-26.24 26.282666v160.256h568.746667v-160.256z m0 217.216H223.829333V817.237333c0 14.464 11.776 26.282667 26.24 26.282667h516.266667c14.464 0 26.24-11.776 26.24-26.282667v-649.088z"  horiz-adv-x="1024" />

    
    <glyph glyph-name="icon_tianjia" unicode="&#59098;" d="M908.032 425.984H592V742.016a48 48 0 0 1-96 0v-316.032H179.968a48 48 0 0 1 0-96H496v-316.032a48 48 0 0 1 96 0V329.984h316.032a48 48 0 0 1 0 96z"  horiz-adv-x="1024" />

    
    <glyph glyph-name="icon_tishi_huang" unicode="&#59099;" d="M512 896C229.2224 896 0 666.7776 0 384s229.2224-512 512-512 512 229.2224 512 512S794.7776 896 512 896z m-76.8-233.2416a64 64 0 1 0 128 0v-284.4416a64 64 0 0 0-128 0V662.7584z m71.1168-580.2496a76.8 76.8 0 1 0 0 153.6 76.8 76.8 0 0 0 0-153.6z"  horiz-adv-x="1024" />

    
    <glyph glyph-name="icon_shuomin" unicode="&#59100;" d="M512 864C247.296 864 32 648.704 32 384s215.296-480 480-480 480 215.296 480 480S776.704 864 512 864z m0-896c-229.376 0-416 186.624-416 416S282.624 800 512 800s416-186.624 416-416-186.624-416-416-416zM496.384 197.312a47.616 47.616 0 0 1-35.776-14.144c-9.984-9.216-14.144-20.8-14.144-34.944 0-14.208 4.16-25.792 14.144-35.84a51.008 51.008 0 0 1 35.776-14.144 51.008 51.008 0 0 1 35.776 14.144 46.016 46.016 0 0 1 14.976 35.84 47.744 47.744 0 0 1-14.144 34.944 49.536 49.536 0 0 1-36.608 14.144zM508.864 704c-59.904 0-106.496-18.304-139.776-54.912C335.808 614.144 320 567.552 320 509.312h65.728c0 40.768 9.152 72.384 27.456 95.68 19.968 27.456 50.752 40.768 92.352 40.768 34.944 0 62.4-9.152 81.536-29.12 18.304-18.304 28.288-44.032 28.288-77.376 0-23.296-8.384-44.928-25.024-65.728-4.992-6.656-14.912-16.64-28.224-29.952-44.928-39.936-72.384-71.552-84.032-96.512a165.44 165.44 0 0 1-14.976-72.384v-19.136h66.56v19.136c0 22.464 4.992 42.432 15.872 60.736 8.256 14.912 20.736 29.952 39.04 45.76 36.608 32.448 59.072 54.08 67.456 64.064 20.736 27.456 31.616 59.904 31.616 97.344 0 49.92-15.872 89.024-46.656 117.312C604.48 689.856 562.112 704 508.864 704z"  horiz-adv-x="1024" />

    
    <glyph glyph-name="icon_shuaxin" unicode="&#59101;" d="M995.456 123.968h-0.128l-87.744-0.32a457.408 457.408 0 0 1 71.04 244.736c0 62.592-12.48 123.328-37.12 180.48a461.696 461.696 0 0 1-101.12 147.328 471.04 471.04 0 0 1-150.08 99.392A476.48 476.48 0 0 1 506.624 832c-54.016 0-106.88-8.896-157.376-26.368a27.008 27.008 0 0 1-16.832-34.624c5.12-14.144 20.864-21.568 35.2-16.576a422.592 422.592 0 0 0 139.008 23.296 417.92 417.92 0 0 0 294.656-119.872 403.008 403.008 0 0 0 122.048-289.472 401.92 401.92 0 0 0-61.888-214.72l-27.52 78.08a27.776 27.776 0 0 1-35.2 16.832 27.008 27.008 0 0 1-17.024-34.56l44.416-126.08a27.008 27.008 0 0 1 7.04-10.752 27.776 27.776 0 0 1 19.584-8h0.128l142.656 0.512a27.392 27.392 0 0 1 27.52 27.2 27.392 27.392 0 0 1-27.584 27.072z m-308.288-124.544a419.072 419.072 0 0 0-180.608-40.32 417.92 417.92 0 0 0-294.656 119.872 403.84 403.84 0 0 0-38.976 534.656l36.096-99.2a27.648 27.648 0 0 1 35.264-16.384 27.008 27.008 0 0 1 16.768 34.688l-49.408 135.744a27.712 27.712 0 0 1-29.568 17.792 28.16 28.16 0 0 1-6.336 0.768h-0.064L27.52 686.528A27.392 27.392 0 0 1 0 659.2c0-14.912 12.416-27.008 27.648-27.008h0.064l90.944 0.256a457.088 457.088 0 0 1 54.144-591.936 470.912 470.912 0 0 1 150.08-99.328c58.24-24.192 120-36.48 183.68-36.48 71.68 0 140.48 15.36 204.608 45.696a26.88 26.88 0 0 1 12.864 36.224 27.84 27.84 0 0 1-36.864 12.736z"  horiz-adv-x="1024" />

    
    <glyph glyph-name="icon_shuaxin1" unicode="&#59102;" d="M955.136 149.845333h-0.085333l-80.469334-0.298666a430.208 430.208 0 0 1 65.152 228.437333 431.232 431.232 0 0 1-126.72 305.92A431.232 431.232 0 0 1 507.050667 810.666667c-49.493333 0-98.005333-8.277333-144.213334-24.618667a25.344 25.344 0 0 1 16.853334-47.786667 381.141333 381.141333 0 0 0 127.36 21.76c102.016 0 197.973333-39.765333 270.122666-111.914666a379.52 379.52 0 0 0 111.914667-270.122667 381.226667 381.226667 0 0 0-56.746667-200.448l-25.258666 72.96a25.344 25.344 0 0 1-47.872-16.597333l40.746666-117.674667a25.216 25.216 0 0 1 6.4-10.026667 25.258667 25.258667 0 0 1 17.962667-7.466666h0.128l130.773333 0.426666a25.344 25.344 0 0 1-0.085333 50.688z m-282.581333-116.266666a378.453333 378.453333 0 0 0-165.546667-37.632 379.52 379.52 0 0 0-270.08 111.914666 379.52 379.52 0 0 0-111.914667 270.08c0 83.029333 26.88 163.114667 76.16 228.949334l33.066667-92.586667a25.344 25.344 0 1 1 47.701333 17.066667l-45.226666 126.72a25.344 25.344 0 0 1-27.136 16.597333 25.386667 25.386667 0 0 1-5.802667 0.64h-0.085333l-135.765334-0.426667a25.344 25.344 0 0 1 0.085334-50.688h0.085333l83.370667 0.298667a431.957333 431.957333 0 0 1-77.098667-246.528 431.189333 431.189333 0 0 1 126.72-305.92 431.189333 431.189333 0 0 1 305.92-126.762667c65.706667 0 128.810667 14.336 187.562667 42.624a25.344 25.344 0 0 1-21.973334 45.653334z"  horiz-adv-x="1024" />

    
    <glyph glyph-name="icon_xiaxian" unicode="&#59103;" d="M960 287.744a32 32 0 0 1-32-32v-127.488a160.384 160.384 0 0 0-160.256-160.256H256.192A160.384 160.384 0 0 0 96 128.256v127.488a32 32 0 0 1-64 0v-127.488A224.512 224.512 0 0 1 256.192-96h511.552a224.512 224.512 0 0 1 224.256 224.256v127.488a32 32 0 0 1-32 32zM488.064 242.752c0.192-0.256 0.512-0.32 0.768-0.576l1.408-1.408 0.512-0.704c1.536-1.344 3.328-1.984 4.992-3.008l1.344-0.96c0.768-0.384 1.408-1.152 2.176-1.472l0.896-0.256c3.84-1.472 7.808-2.368 11.84-2.368s8 0.896 11.84 2.368l0.896 0.256c0.768 0.384 1.408 1.152 2.176 1.472l1.344 0.96c1.664 1.024 3.456 1.6 4.992 3.008l0.512 0.704 1.408 1.408 0.768 0.576 160 180.48a32 32 0 1 1-47.872 42.496L544 348.288V824a32 32 0 0 1-64 0v-475.712L375.936 465.664a32 32 0 1 1-47.872-42.432l160-180.48z"  horiz-adv-x="1024" />

    
    <glyph glyph-name="icon_zhiweiguangli" unicode="&#59104;" d="M896.384 768H127.616A128 128 0 0 1 0 639.808v-575.616C0-6.784 57.152-64 127.616-64h768.768c70.4 0 127.616 57.344 127.616 128.192V639.808A127.808 127.808 0 0 1 896.384 768zM542.208 128h-0.704c-7.616 0.128-144.704 0.32-144.832 0.128H230.336c-40.064 0-70.336 28.096-70.336 65.344v9.024c0 31.936 21.632 61.056 53.888 72.448-0.064 0 40.96 16.384 74.816 32.64 3.2 1.536 5.76 3.008 7.744 4.16-14.144 22.592-43.2 70.528-43.2 113.664C253.248 516.928 305.92 576 387.456 576s134.208-59.072 134.208-150.592c0-41.344-26.688-83.52-42.688-108.608-0.896-1.472-1.792-2.944-2.688-4.224 35.52-16.96 83.264-40.064 91.712-45.76 13.824-8.064 40-23.36 40-67.712C608 152.704 569.792 128 542.208 128zM832 288h-128a32 32 0 0 0 0 64h128a32 32 0 0 0 0-64z m25.024 128H640a32 32 0 0 0 0 64h217.024a32 32 0 0 0 0-64zM532.096 213.824c-6.4 3.84-54.784 27.456-97.6 47.808a30.336 30.336 0 0 0-9.6 6.976 56.32 56.32 0 0 0-13.824 56.768c2.24 7.36 6.656 14.336 13.888 25.728 11.456 17.984 32.704 51.52 32.704 74.304C457.664 457.792 448.576 512 387.456 512s-70.208-54.208-70.208-86.592c0-26.496 26.368-68.416 35.008-82.24 2.752-4.288 4.736-7.552 5.696-9.344 7.168-13.44 8.64-27.072 4.288-40.32-7.488-22.848-29.696-35.84-45.76-43.584-36.224-17.344-80.064-34.944-80.064-34.944-7.936-2.816-12.416-8.512-12.416-12.48v-9.024c0-0.128 2.112-1.344 6.336-1.344h166.336s123.264 0 143.488-0.128c3.84 1.472 3.84 5.12 3.84 7.104 0 5.952-1.088 7.936-1.088 8l-10.816 6.72z"  horiz-adv-x="1024" />

    
    <glyph glyph-name="icon_zhidu" unicode="&#59105;" d="M480.384-64H191.616A95.616 95.616 0 0 0 96 31.488V736.512C96 789.184 139.136 832 192.192 832h575.616c53.056 0 96.192-43.328 96.192-96.576v-236.032a32 32 0 0 1 64 0V735.424A160.576 160.576 0 0 1 767.808 896H192.192A160 160 0 0 1 32 736.512v-705.024A159.744 159.744 0 0 1 191.616-128h288.768a32 32 0 0 1 0 64zM753.088 576a32 32 0 0 1-32 32H243.2a32 32 0 1 1 0-64h477.888a32 32 0 0 1 32 32zM243.2 448a32 32 0 1 1 0-64h247.68a32 32 0 0 1 0 64H243.2zM789.632 179.776L752 256l-37.632-76.224-84.096-12.224 60.864-59.328-14.4-83.776L752 64l75.264-39.552-14.4 83.776 60.864 59.328zM740.48 384c-141.184 0-256-114.816-256-256s114.816-256 256-256 256 114.816 256 256-114.816 256-256 256z m0-448c-105.856 0-192.064 86.144-192.064 192s86.208 192 192.064 192 192-86.144 192-192-86.08-192-192-192z"  horiz-adv-x="1024" />

    
    <glyph glyph-name="icon_zhiweiguangli1" unicode="&#59106;" d="M896.384 768H127.616A128 128 0 0 1 0 639.808v-575.616C0-6.784 57.152-64 127.616-64h768.768c70.4 0 127.616 57.344 127.616 128.192V639.808A127.808 127.808 0 0 1 896.384 768zM960 64.192A64 64 0 0 0 896.384 0H127.616A63.808 63.808 0 0 0 64 64.192V639.808A64 64 0 0 0 127.616 704h768.768c35.136 0 63.616-28.544 63.616-64.192v-575.616zM568 266.816c-8.448 5.696-56.128 28.8-91.712 45.76 0.896 1.28 1.792 2.752 2.688 4.224 16 25.152 42.688 67.264 42.688 108.608C521.664 516.928 468.992 576 387.456 576s-134.208-59.072-134.208-150.592c0-43.2 29.056-91.136 43.2-113.664-1.984-1.152-4.48-2.624-7.744-4.16-33.92-16.256-74.88-32.64-74.816-32.64-32.256-11.392-53.888-40.512-53.888-72.448v-9.024c0-37.248 30.272-65.344 70.336-65.344h166.336c0.128 0.192 137.216 0 144.832-0.128h0.704c27.584 0 65.792 24.704 65.792 71.104 0 44.352-26.176 59.648-40 67.712zM540.096 192c-20.16 0.128-143.488 0.128-143.488 0.128H230.336c-4.224 0-6.4 1.28-6.336 1.344v9.024c0 3.968 4.48 9.664 12.352 12.48 0 0 43.904 17.536 80.064 34.944 16.128 7.744 38.336 20.736 45.824 43.584a50.048 50.048 0 0 1-4.288 40.32 165.248 165.248 0 0 1-5.696 9.344c-8.64 13.824-35.008 55.808-35.008 82.24C317.248 457.792 326.4 512 387.456 512s70.208-54.208 70.208-86.592c0-22.784-21.312-56.32-32.704-74.304-7.232-11.392-11.648-18.368-13.888-25.728a56.32 56.32 0 0 1 13.824-56.768 31.104 31.104 0 0 1 9.6-6.976c42.752-20.352 91.2-44.032 97.6-47.808l10.816-6.656c0-0.064 1.088-2.048 1.088-8 0-2.048 0-5.696-3.904-7.168zM857.024 480H640a32 32 0 0 1 0-64h217.024a32 32 0 0 1 0 64zM832 352h-128a32 32 0 0 1 0-64h128a32 32 0 0 1 0 64z"  horiz-adv-x="1024" />

    
    <glyph glyph-name="icon_zhuanzheng" unicode="&#59107;" d="M832 864H192A160.192 160.192 0 0 1 32 704v-640c0-88.256 71.808-160 160-160h640c88.256 0 160 71.744 160 160V704c0 88.192-71.744 160-160 160zM523.584 71.104H254.656c-54.464 0-93.952 35.456-93.952 84.224v14.016c0 41.856 30.528 81.472 74.304 96.384-0.064 0 67.84 26.304 122.944 51.968 26.24 12.224 30.592 20.16 30.656 20.224-4.48 0.512-4.48 2.944-7.232 7.168-20.992 32.192-69.952 107.52-69.952 173.056 0 132.032 77.44 217.344 197.312 217.344 119.872 0 197.312-85.312 197.312-217.344 0-59.776-41.408-122.944-66.176-160.704-6.336-9.472-11.456-16.896-13.504-21.44-0.32-1.152-0.704-2.304 3.648-6.72a32 32 0 1 0-46.016-44.544c-19.968 20.608-26.368 46.144-18.176 71.872 2.944 9.216 9.536 19.328 20.416 35.904 20.864 31.808 55.744 84.928 55.744 125.568 0 46.144-12.992 153.344-133.312 153.344-120.256 0-133.312-107.264-133.312-153.344 0-46.528 43.264-113.024 59.584-138.112 3.968-6.08 6.848-10.624 8.256-13.184 9.28-16.64 11.264-33.216 6.08-49.152-7.36-22.528-27.84-40.96-64.32-57.92-57.344-26.688-125.312-52.992-128.192-54.144-19.136-6.528-32.128-21.568-32.128-36.224v-14.016c0-19.712 26.88-20.224 29.952-20.224h268.992a32 32 0 0 0 0-64z m359.232 231.168l-153.472-221.504a31.872 31.872 0 0 0-45.504-7.296l-116.032 87.104a32 32 0 0 0 38.336 51.136l89.472-67.136 134.592 194.176a32 32 0 0 0 52.608-36.48z"  horiz-adv-x="1024" />

    
    <glyph glyph-name="icon_zhuanzheng1" unicode="&#59108;" d="M523.584 135.104H254.656c-3.072 0-29.952 0.576-29.952 20.224v14.016c0 14.656 12.992 29.696 32.064 36.16 2.88 1.152 70.848 27.456 128.192 54.144 36.48 17.024 56.96 35.456 64.32 57.92 5.248 15.936 3.2 32.512-6.016 49.28a255.872 255.872 0 0 1-8.256 13.184c-16.32 25.088-59.584 91.584-59.584 138.112 0 46.144 12.992 153.344 133.312 153.344 120.32 0 133.312-107.264 133.312-153.344 0-40.64-34.88-93.824-55.744-125.568-10.88-16.64-17.472-26.688-20.416-35.968-8.256-25.728-1.856-51.264 18.112-71.872a32 32 0 1 1 46.016 44.48c-4.352 4.48-3.968 5.632-3.648 6.784 2.048 4.544 7.168 11.968 13.44 21.44 24.768 37.76 66.176 100.928 66.176 160.704 0 132.032-77.44 217.344-197.312 217.344-119.872 0-197.312-85.312-197.312-217.344 0-65.536 49.024-140.864 69.952-172.992 2.752-4.288 2.816-6.72 7.296-7.232-0.064-0.064-4.416-8-30.72-20.224-55.104-25.6-123.072-51.968-122.944-51.968-43.776-14.848-74.304-54.464-74.304-96.384v-14.016c0-48.832 39.552-84.224 93.952-84.224h268.992a32 32 0 0 1 0 64zM830.208 338.752l-134.592-194.176-89.472 67.136a31.936 31.936 0 1 1-38.336-51.136l116.032-87.104a32.128 32.128 0 0 1 45.504 7.296l153.472 221.504a32 32 0 0 1-52.608 36.48zM832 864H192A160.192 160.192 0 0 1 32 704v-640c0-88.256 71.808-160 160-160h640c88.256 0 160 71.744 160 160V704c0 88.192-71.744 160-160 160zM928 64c0-52.928-43.072-96-96-96H192c-52.928 0-96 43.072-96 96V704c0 52.928 43.072 96 96 96h640c52.928 0 96-43.072 96-96v-640z"  horiz-adv-x="1024" />

    
    <glyph glyph-name="icon_chenggong" unicode="&#59109;" d="M512 896a512 512 0 1 1 0-1024A512 512 0 0 1 512 896z m279.424-365.312l-300.16-345.344a32.128 32.128 0 0 0-45.12-3.136L254.272 348.928a32.064 32.064 0 0 0 42.048 48.32l167.68-145.728 279.104 321.152a32 32 0 1 0 48.32-41.984z"  horiz-adv-x="1024" />

    
    <glyph glyph-name="icon_biaodan" unicode="&#59111;" d="M832 734.336h-32.448c0.064-1.408 0.448-2.752 0.448-4.224v-58.048A96 96 0 0 0 704.192 576H319.808A96 96 0 0 0 224 672.064v58.048c0 1.408 0.384 2.752 0.448 4.16H192a128 128 0 0 1-128-128V0a128 128 0 0 1 128-128h640a128 128 0 0 1 128 128V606.336a128 128 0 0 1-128 128zM363.776 372.352a32.064 32.064 0 0 0 45.184 3.2l72.448-63.04L611.84 462.656a32.064 32.064 0 0 0 48.384-42.048L508.736 246.4a32.192 32.192 0 0 0-21.888-10.944l-2.24-0.064a31.808 31.808 0 0 0-20.992 7.872l-96.64 83.968a32 32 0 0 0-3.2 45.12zM640 96H384a32 32 0 0 0 0 64h256a32 32 0 0 0 0-64zM319.808 640h384.384c17.28 0 31.808 14.656 31.808 32.064v58.048a32.512 32.512 0 0 1-32 32.064h-64a32 32 0 0 0-30.72 23.104C608.832 786.56 592.448 832 512 832c-80.448 0-96.832-45.44-97.472-47.36A32.96 32.96 0 0 0 384 762.176H320c-17.664 0-32-14.4-32-32.064v-58.048c0-17.408 14.592-32.064 31.808-32.064z"  horiz-adv-x="1024" />

    
    <glyph glyph-name="icon_bangzhu" unicode="&#59112;" d="M512 855.488C247.296 855.488 32 640.192 32 375.488c0-117.376 42.624-229.824 120.064-317.568-2.688-10.24-12.032-29.696-17.984-41.984-19.264-40.064-41.152-85.44-6.08-110.464 24.64-17.6 72-5.632 127.488 10.56 26.688 7.744 56.896 16.576 69.184 17.344A477.76 477.76 0 0 1 512-104.512c264.704 0 480 215.296 480 480 0 264.64-215.296 480-480 480zM512 48a64 64 0 1 0 0 128 64 64 0 0 0 0-128z m73.984 273.6c-13.824-13.12-28.096-26.688-32.768-35.008-17.344-31.104-13.056-70.464-13.056-70.848a32 32 0 0 0-63.552-7.808c-0.704 6.08-6.464 60.928 20.672 109.76 9.472 17.024 25.792 32.512 44.736 50.432 35.968 34.112 76.736 72.704 76.032 124.736-0.448 29.632-10.88 52.672-30.976 68.48-28.032 22.016-72.32 28.288-121.6 16.96-77.056-17.472-78.72-111.936-78.72-115.968a32.128 32.128 0 0 0-32.064-31.744H354.56a31.936 31.936 0 0 0-31.872 31.936c0 51.584 26.88 155.136 128.576 178.24 68.352 15.488 132.032 4.864 175.296-29.12 35.584-27.968 54.72-68.736 55.424-117.888 1.152-80.128-54.976-133.312-96-172.16z"  horiz-adv-x="1024" />

    
    <glyph glyph-name="icon_biaodan1" unicode="&#59113;" d="M463.552 243.264c5.824-5.12 13.312-7.872 20.992-7.872l2.24 0.064a32.192 32.192 0 0 1 21.888 10.944l151.488 174.336a32 32 0 0 1-48.32 41.92L481.408 312.512 408.96 375.552a32.064 32.064 0 0 1-42.048-48.32l96.64-83.968zM640 160H384a32 32 0 0 1 0-64h256a32 32 0 0 1 0 64zM832.128 734.336h-65.024A63.616 63.616 0 0 1 704 794.176h-64c-3.2 11.072-11.712 23.744-23.552 34.944C591.872 852.224 556.672 864 512 864s-79.808-11.776-104.384-34.88c-11.84-11.2-20.48-23.936-23.616-34.944H320a63.744 63.744 0 0 1-63.168-59.904H191.936A128.128 128.128 0 0 1 64 606.144v-606.016C64-70.528 121.6-128 192.384-128h639.232A128.384 128.384 0 0 1 960 0.128V606.144a128.192 128.192 0 0 1-127.872 128.192zM320 730.176h112.128L444.8 774.4a33.472 33.472 0 0 0 6.656 8.064c12.352 11.648 32.704 17.536 60.544 17.536 27.904 0 48.256-5.888 60.48-17.408 4.352-4.16 6.464-7.04 6.016-6.208l13.376-46.208L704 730.112l-0.192-58.112L320 672.064v58.112z m576-730.048c0-35.392-28.864-64.128-64.384-64.128H192.384A64.32 64.32 0 0 0 128 0.128V606.144c0 35.392 28.672 64.128 63.936 64.128h64.384a63.872 63.872 0 0 1 63.488-62.272h384.384c34.56 0 62.528 27.84 63.424 62.336h64.512c35.264 0 63.872-28.8 63.872-64.128v-606.08z"  horiz-adv-x="1024" />

    
    <glyph glyph-name="icon_fenpei" unicode="&#59110;" d="M896 0H256a32 32 0 0 1 0-64h640a32 32 0 0 1 0 64zM224 128a32 32 0 0 1 32-32h640a32 32 0 0 1 0 64H256a32 32 0 0 1-32-32zM386.24 405.312v-19.392c0-18.176 4.224-33.344 12.672-45.248 18.944-26.816 56.576-30.272 89.28-5.952l206.144 154.112c21.056 15.808 33.472 38.912 34.048 63.424a82.688 82.688 0 0 1-31.552 65.472L488 789.12c-15.36 12.544-31.04 18.944-46.592 18.944-27.456 0-55.168-20.928-55.168-67.648v-39.936c-50.944-15.36-165.248-60.096-233.024-166.592-82.688-129.856-69.824-319.296-41.472-410.688l9.344-21.568h21.632c27.2 0 32.768 20.16 44.992 64.448 14.976 53.888 42.688 154.048 86.336 194.432 40.768 37.76 82.688 46.4 112.192 44.8zM154.368 275.328c-0.768 76.096 12.992 161.728 52.864 224.256 72.448 113.792 216 144.64 217.472 144.96l25.536 5.312V737.28l205.952-168.96c5.376-4.416 8.32-9.6 8.192-14.592-0.064-4.8-3.072-9.6-8.448-13.632L450.24 386.304V458.432l-23.744 6.336c-4.672 1.216-107.2 24.768-195.968-57.28-34.048-31.488-58.368-82.56-76.16-132.16z"  horiz-adv-x="1024" />

    
    <glyph glyph-name="icon_fuzhi" unicode="&#59115;" d="M644.8 387.968H536.832V496a32 32 0 0 1-64 0v-108.032H364.8a32 32 0 0 1 0-64h108.032v-108.032a32 32 0 0 1 64 0V323.968h108.032a32 32 0 1 1-0.064 64zM904 584h-0.32v22.656L679.68 832H248.128A128.64 128.64 0 0 1 119.68 703.616v-639.232c0-70.848 57.28-128.384 127.68-128.384h528.64a127.872 127.872 0 0 1 127.68 127.744V520h0.32v64z m-68.032 0h-99.712a80.32 80.32 0 0 0-80.256 80.256V765.056l179.968-181.056z m3.712-520.256a63.808 63.808 0 0 0-63.68-63.744h-528.64c-35.136 0-63.68 28.864-63.68 64.384V703.616C183.68 739.136 212.608 768 248.128 768H592v-103.744a144.384 144.384 0 0 1 144.256-144.256h103.424v-456.256z"  horiz-adv-x="1024" />

    
    <glyph glyph-name="icon_bangzhu1" unicode="&#59116;" d="M512 855.488C247.296 855.488 32 640.192 32 375.488c0-117.376 42.624-229.824 120.064-317.568-2.688-10.24-12.032-29.696-17.984-41.984-19.264-40.064-41.152-85.44-6.08-110.464 24.64-17.6 72-5.632 127.488 10.56 26.688 7.744 56.896 16.576 69.184 17.344A477.76 477.76 0 0 1 512-104.512c264.704 0 480 215.296 480 480 0 264.64-215.296 480-480 480z m0-896a414.72 414.72 0 0 0-162.368 32.832 59.584 59.584 0 0 1-23.616 4.288c-22.784 0-54.656-9.344-88.448-19.136-20.48-5.888-42.88-12.48-58.368-16.512 3.904 9.152 8.896 19.584 12.544 27.2 19.648 40.768 38.208 79.296 13.184 106.688A414.784 414.784 0 0 0 96 375.488c0 229.376 186.624 416 416 416s416-186.624 416-416-186.624-416-416-416zM626.56 611.648c-43.264 33.984-106.944 44.608-175.296 29.12-101.696-23.104-128.576-126.72-128.576-178.24a32 32 0 0 1 31.872-31.936h0.128a32 32 0 0 1 32 31.808c0 3.968 1.664 98.496 78.72 115.968 49.28 11.328 93.568 5.056 121.536-16.96 20.096-15.872 30.592-38.848 30.976-68.48 0.768-52.032-40-90.688-76.032-124.736-18.816-17.984-35.2-33.536-44.608-50.496-27.136-48.832-21.312-103.68-20.608-109.76a32 32 0 1 1 63.552 7.808c0 0.448-4.288 39.744 13.056 70.848 4.608 8.32 18.88 21.888 32.704 35.008 41.024 38.848 97.152 92.032 96 172.16-0.64 49.152-19.84 89.92-55.424 117.888zM512 112m-64 0a64 64 0 1 1 128 0 64 64 0 1 1-128 0Z"  horiz-adv-x="1024" />

    
    <glyph glyph-name="icon_cuowu" unicode="&#59117;" d="M874.397474 743.756025a510.543948 510.543948 0 0 1-722.153499 0 510.543948 510.543948 0 0 1 0-722.153499 510.543948 510.543948 0 0 1 722.153499 0 510.543948 510.543948 0 0 1 0 722.153499z m-183.203442-493.819453a31.916976 31.916976 0 0 0-45.194438-45.130604L510.671615 340.197781l-135.455646-135.391813a31.789308 31.789308 0 0 0-45.194438 0 31.916976 31.916976 0 0 0 0 45.130604L465.541011 385.328385 330.085365 520.720197a31.916976 31.916976 0 0 0 45.130604 45.130604L510.671615 430.458989l135.391813 135.391812a31.916976 31.916976 0 0 0 45.130604-45.130604L555.802219 385.328385l135.391813-135.391813z"  horiz-adv-x="1026" />

    
    <glyph glyph-name="icon_biaodan2" unicode="&#59118;" d="M680 472h-336a32 32 0 0 1 0-64h336a32 32 0 0 1 0 64zM680 304h-336a32 32 0 0 1 0-64h336a32 32 0 0 1 0 64zM960 584h-0.32v22.656L735.68 832H247.296C176.96 832 119.68 774.4 119.68 703.616v-639.232c0-70.848 57.216-128.384 127.552-128.384h584.896a127.808 127.808 0 0 1 127.552 127.744V520H960v64z m-68.032 0h-99.712a80.32 80.32 0 0 0-80.256 80.256V765.056l179.968-181.056z m3.712-520.256a63.68 63.68 0 0 0-63.552-63.744H247.232a64 64 0 0 0-63.552 64.384V703.616c0 35.52 28.544 64.384 63.616 64.384h400.704v-103.744a144.384 144.384 0 0 1 144.256-144.256h103.424v-456.256z"  horiz-adv-x="1024" />

    
    <glyph glyph-name="icon_jian" unicode="&#59121;" d="M896 352H128A48 48 0 0 0 128 448h768a48 48 0 0 0 0-96z"  horiz-adv-x="1024" />

    
    <glyph glyph-name="icon_jinggao" unicode="&#59123;" d="M512 896a512 512 0 1 1 0-1024A512 512 0 0 1 512 896z m-32-233.28a32 32 0 0 0 64 0v-284.416a32 32 0 0 0-64 0V662.72z m32-563.136a68.288 68.288 0 1 0 0 136.576 68.288 68.288 0 0 0 0-136.576z"  horiz-adv-x="1024" />

    
    <glyph glyph-name="icon_qingchu" unicode="&#59124;" d="M982.464 674.432a96.128 96.128 0 0 1-28.544 68.288l-82.304 82.368c-36.608 36.736-99.52 36.8-136.128 0.256L596.288 686.272l-60.224 60.224c-60.288 60.352-166.272 60.288-226.752-0.192l-232.32-232.32a159.936 159.936 0 0 1-0.256-226.816l339.2-339.264c30.144-30.144 70.4-46.72 113.28-46.72 42.944 0 83.264 16.704 113.536 46.912l232.384 232.384c30.4 30.4 47.104 70.656 47.104 113.472s-16.64 83.008-46.912 113.28l-60.16 60.224 139.136 139.136c18.112 18.24 28.16 42.304 28.16 67.84zM597.504-6.656c-36.352-36.224-100.16-36.288-136.256-0.192l-38.528 38.592 80.896 80.896a32 32 0 0 1-45.248 45.248l-80.896-80.896-41.472 41.472L499.648 282.24a32 32 0 0 1-45.248 45.248l-163.712-163.776-41.536 41.472L330.048 286.08a32 32 0 0 1-45.248 45.248l-80.896-80.896-81.92 81.92a96 96 0 0 0 0.192 136.384l155.648 155.648 475.328-475.328-155.648-155.712z m311.488 658.56l-161.728-161.728a32 32 0 0 1 0-45.248l82.816-82.816c18.176-18.176 28.16-42.368 28.16-68.032s-10.048-49.92-28.352-68.224l-31.424-31.424-475.328 475.2 31.424 31.424a96 96 0 0 0 68.288 28.224c25.792 0 49.92-9.984 67.968-28.032l82.816-82.816a32 32 0 0 1 45.248 0l161.728 161.728a32.576 32.576 0 0 0 45.632-0.256l82.368-82.432a32.512 32.512 0 0 0 9.728-23.104 31.04 31.04 0 0 0-9.344-22.464z"  horiz-adv-x="1024" />

    
    <glyph glyph-name="icon_qiyong" unicode="&#59125;" d="M512 864C247.296 864 32 648.704 32 384s215.296-480 480-480 480 215.296 480 480S776.704 864 512 864z m0-896c-229.376 0-416 186.624-416 416S282.624 800 512 800s416-186.624 416-416-186.624-416-416-416zM494.272 584.32c-19.008 13.056-35.712 19.456-51.008 19.456-12.8 0-54.464-5.376-54.464-74.944v-302.08c0-69.504 41.792-74.88 54.592-74.88 15.296 0 31.936 6.336 50.944 19.392l247.04 170.048c14.656 10.048 22.08 22.336 22.08 36.544s-7.424 26.496-22.08 36.416L494.272 584.32z m-36.224-360.32c-1.856-1.344-3.584-2.368-5.12-3.328a164.224 164.224 0 0 0-0.128 6.08v302.08l0.128 6.08c1.472-0.896 3.2-1.984 5.12-3.328l223.488-153.792L458.048 224z"  horiz-adv-x="1024" />

    
    <glyph glyph-name="icon_lajitong" unicode="&#59119;" d="M960 714.688h-271.744v43.008c0 40.96-27.712 74.304-61.696 74.304H376.512c-33.984 0-61.632-33.664-61.632-75.008v-42.304H64a32 32 0 0 1 0-64h80v-564.672A182.208 182.208 0 0 1 325.952-96h372.032a182.208 182.208 0 0 1 182.016 182.016V650.688H960a32 32 0 0 1 0 64z m-581.12 42.304c0 5.376 1.472 9.088 2.624 11.008l239.168 1.536c0.768-0.64 3.584-4.608 3.584-11.904v-43.008H378.88v42.368z m437.12-670.976a118.144 118.144 0 0 0-118.016-118.016H325.952a118.08 118.08 0 0 0-117.952 118.016V650.688h608v-564.672zM392.448 505.6a32 32 0 0 1-32-32l0.128-358.4a32 32 0 0 1 64 0l-0.128 358.4a32 32 0 0 1-32 32zM631.488 505.6a32 32 0 0 1-32-32v-358.4a32 32 0 0 1 64 0V473.6a32 32 0 0 1-32 32z"  horiz-adv-x="1024" />

    
    <glyph glyph-name="icon_jujue" unicode="&#59120;" d="M639.872 608h-465.28l136.128 137.472a32 32 0 1 1-45.44 45.056l-192-193.856a32 32 0 0 1 0-45.056l188.288-190.144a31.808 31.808 0 0 1 45.248-0.192 32 32 0 0 1 0.192 45.248L170.88 544h468.992C763.456 544 864 443.52 864 320s-100.544-224-224.128-224H128.128a32 32 0 0 1 0-64h511.744c158.848 0 288.128 129.216 288.128 288s-129.28 288-288.128 288z"  horiz-adv-x="1024" />

    
    <glyph glyph-name="icon_shangyi" unicode="&#59128;" d="M980.736 497.92L560.704 856.32a32.128 32.128 0 0 1-41.536 0L107.2 504.896a32 32 0 1 1 41.6-48.704L512 766.08v-800.192a32 32 0 0 1 64 0V759.168l363.264-309.888a32 32 0 0 1 41.472 48.64z"  horiz-adv-x="1024" />

    
    <glyph glyph-name="icon_erweima" unicode="&#59122;" d="M322.112 413.888H224a160.192 160.192 0 0 0-160 160V672C64 760.192 135.808 832 224 832h98.112c88.192 0 160-71.808 160-160v-98.112c0-88.256-71.744-160-160-160zM224 768C171.072 768 128 724.928 128 672v-98.112c0-52.928 43.072-96 96-96h98.112c52.928 0 96 43.072 96 96V672c0 52.928-43.072 96-96 96H224zM800 413.888h-98.112a160.192 160.192 0 0 0-160 160V672c0 88.192 71.744 160 160 160H800C888.256 832 960 760.192 960 672v-98.112c0-88.256-71.744-160-160-160zM701.888 768c-52.928 0-96-43.072-96-96v-98.112c0-52.928 43.072-96 96-96H800c52.928 0 96 43.072 96 96V672c0 52.928-43.072 96-96 96h-98.112zM322.112-64H224A160.192 160.192 0 0 0 64 96v98.112c0 88.256 71.808 160 160 160h98.112c88.192 0 160-71.744 160-160V96c0-88.256-71.744-160-160-160zM224 290.112c-52.928 0-96-43.072-96-96V96c0-52.928 43.072-96 96-96h98.112c52.928 0 96 43.072 96 96v98.112c0 52.928-43.072 96-96 96H224zM601.6-36.224a32 32 0 0 0-32 32V294.4a32 32 0 0 0 64 0v-298.624c0-17.728-14.272-32-32-32zM721.088-36.224a32 32 0 0 0-32 32v179.2a32 32 0 0 0 64 0v-179.2a32 32 0 0 0-32-32zM900.224-36.224a32 32 0 0 0-32 32V294.4a32 32 0 0 0 64 0v-298.624c0-17.728-14.272-32-32-32z"  horiz-adv-x="1024" />

    
    <glyph glyph-name="icon_shifang" unicode="&#59130;" d="M930.24 610.304c0 51.264-19.968 99.52-56.256 135.744-72.512 72.512-198.976 72.576-271.488 0L398.848 542.4 214.656 726.656a32 32 0 0 1-45.248-45.248l184.256-184.256-203.712-203.648a190.592 190.592 0 0 1-56.256-135.744c0-51.328 19.968-99.52 56.256-135.744 36.224-36.224 84.48-56.256 135.744-56.256s99.52 19.968 135.808 56.256l203.648 203.648 177.792-177.792a31.872 31.872 0 0 1 45.312 0 32 32 0 0 1 0 45.248l-177.792 177.792 203.648 203.648a190.912 190.912 0 0 1 56.128 135.744z m-553.984-543.04c-48.384-48.384-132.672-48.384-181.056 0-24.192 24.192-37.504 56.32-37.504 90.496s13.312 66.304 37.504 90.496l203.648 203.648L579.84 270.912l-203.584-203.648z m452.48 452.48L625.152 316.096 444.096 497.152l203.648 203.648c24.192 24.192 56.32 37.504 90.496 37.504s66.304-13.312 90.496-37.504 37.504-56.32 37.504-90.496-13.312-66.368-37.504-90.56z"  horiz-adv-x="1024" />

    
    <glyph glyph-name="icon_jiangtoul" unicode="&#59131;" d="M696.576-32a31.936 31.936 0 0 0-22.72 9.472L297.28 357.696a32 32 0 0 0 0 45.056l384 387.776a32 32 0 0 0 45.504-45.12L365.056 380.224l354.304-357.76a32 32 0 0 0-22.784-54.464z"  horiz-adv-x="1024" />

    
    <glyph glyph-name="icon_riqi" unicode="&#59132;" d="M492.8 848C228.096 848 12.8 632.704 12.8 368s215.296-480 480-480 480 215.296 480 480S757.504 848 492.8 848z m0-896c-229.376 0-416 186.624-416 416s186.624 416 416 416 416-186.624 416-416-186.624-416-416-416zM714.624 392h-192v192a32 32 0 0 1-64 0v-224a32 32 0 0 1 32-32h224a32 32 0 0 1 0 64z"  horiz-adv-x="1024" />

    
    <glyph glyph-name="icon_tongyi" unicode="&#59133;" d="M767.488 320H608V405.568a225.088 225.088 0 0 1 128 202.432C736 731.52 635.52 832 512 832S288 731.52 288 608c0-86.08 50.24-165.504 128-202.432V320H256.512A128.384 128.384 0 0 1 128 192v-128h768v128c0 70.592-57.6 128-128.512 128zM832 128H192v64c0 35.328 28.928 64 64.512 64H480V446.016l-36.544 17.344A160.896 160.896 0 0 0 352 608C352 696.192 423.808 768 512 768c88.256 0 160-71.808 160-160 0-61.44-35.904-118.272-91.52-144.64l-36.48-17.344V256h223.488c35.584 0 64.512-28.672 64.512-64v-64zM768 32H256a32 32 0 0 1 0-64h512a32 32 0 0 1 0 64z"  horiz-adv-x="1024" />

    
    <glyph glyph-name="icon_shouquan" unicode="&#59134;" d="M509.952 314.496L341.184 461.248a32.064 32.064 0 0 1-42.048-48.32l191.872-166.656a32 32 0 0 1 44.096 1.984l328.768 343.168a31.616 31.616 0 0 1 7.872 17.088c0.512 2.304 1.344 4.416 1.344 6.848v33.28c0 49.92-35.456 99.392-81.664 114.752C606.08 830.144 502.784 864 484.544 864c-18.24 0-121.472-33.856-306.176-100.352C131.392 747.968 96 698.752 96 649.152v-292.544c0-200.704 267.2-388.544 388.544-388.544 122.112 0 388.544 195.072 388.544 388.544a32 32 0 0 1-64 0c0-151.296-230.4-324.544-324.544-324.544C398.656 32 160 193.408 160 356.544V649.152c0 21.824 18.048 46.976 39.36 54.08 126.272 45.44 268.352 94.08 282.88 96.896 19.2-2.752 161.344-51.456 288.256-97.216 20.544-6.848 38.656-32.192 38.656-54.272v-21.888L509.952 314.496z"  horiz-adv-x="1024" />

    
    <glyph glyph-name="icon_xunjian" unicode="&#59135;" d="M951.808 242.88l-107.264 63.616L953.6 371.072l20.608 13.056 0.064 18.368c0 19.264-15.104 28.16-22.848 32.704l-101.12 59.904 107.584 63.744 20.8 12.992-0.064 18.496c0 19.392-15.104 28.096-22.656 32.448L552.704 861.632c-29.248 17.344-80.512 17.344-109.76 0L37.76 621.568l-20.8-12.864v-18.432c0-19.392 15.04-28.096 22.656-32.576l101.376-60.096L12.416 421.12v-18.56c0-19.392 15.424-28.224 22.912-32.576l107.136-63.488-109.12-64.64-20.608-13.056v-18.368c0-19.328 15.232-28.16 22.592-32.512l403.2-238.784c14.656-8.704 34.176-13.504 54.976-13.504 20.8 0 40.32 4.8 54.848 13.44l405.504 240.192 20.544 12.864v18.432c0 19.392-14.976 27.968-22.592 32.32zM475.52 806.592c6.976 4.16 37.568 4.16 44.544 0l365.248-216.32-365.184-216.32c-6.976-4.16-37.568-4.16-44.608 0l-365.248 216.32 365.248 216.32zM194.88 455.168h17.728L442.88 318.72c14.656-8.64 34.112-13.376 54.848-13.376s40.32 4.8 54.976 13.376l231.296 137.024 6.976 0.064 89.984-53.312-365.248-216.384c-6.976-4.096-37.44-4.16-44.544 0.064l-365.184 216.32 88.896 52.672z m320.896-461.056c-6.976-4.096-37.44-4.16-44.544 0.064l-365.248 216.32 84.096 49.792 16.064 8.448 232.32-137.6c14.656-8.704 34.176-13.504 54.976-13.504 20.8 0 40.32 4.8 54.848 13.44l231.808 137.344 16.064-7.616 84.736-50.24-365.12-216.448z"  horiz-adv-x="1024" />

    
    <glyph glyph-name="icon_xunjian1" unicode="&#59136;" d="M951.616 243.008l-44.352 26.24-326.208-193.28c-24.384-14.464-55.424-22.4-87.552-22.4s-63.168 7.936-87.552 22.464L79.68 269.248l-44.352-26.24c-30.144-17.856-30.336-47.04 0-65.024l403.264-238.912c30.144-17.792 79.488-17.92 109.76 0l403.264 238.912c30.208 17.92 30.4 47.104 0 65.024zM39.68 557.632l403.2-238.912c30.144-17.856 79.488-17.92 109.824 0l403.264 238.912c30.144 17.856 30.272 47.04 0 65.024L552.768 861.632c-30.208 17.856-79.552 17.92-109.824 0L39.68 622.72c-30.208-17.856-30.336-47.104 0-65.088zM951.616 435.008l-38.592 22.848-327.68-194.176c-24.384-14.4-55.424-22.4-87.552-22.4s-63.168 8-87.488 22.464L78.208 460.416l-42.88-25.408c-30.144-17.856-30.336-47.104 0-65.088l403.264-238.912c30.144-17.792 79.488-17.92 109.76 0l403.264 238.912c30.208 17.92 30.4 47.168 0 65.088z"  horiz-adv-x="1024" />

    
    <glyph glyph-name="icon_zhuangyi" unicode="&#59137;" d="M831.872 768H477.12L385.088 832h-193.28A128.128 128.128 0 0 1 64 703.808v-575.616C64 57.472 121.6 0 192.384 0h639.232A128.64 128.64 0 0 1 960 128.576V639.424A128.512 128.512 0 0 1 831.872 768zM896 128.576c0-35.648-28.864-64.576-64.384-64.576H192.384C156.864 64 128 92.8 128 128.192V703.808C128 739.2 156.608 768 191.808 768h173.184l91.904-64h374.976C867.264 704 896 675.008 896 639.424v-510.848zM652.224 532.8a32.128 32.128 0 0 1-48.704-41.6L667.712 416H328.704a32 32 0 0 1 0-64H665.6L601.344 276.736a32 32 0 0 1 48.768-41.472l110.272 129.216a32.064 32.064 0 0 1 0 41.536l-108.16 126.784z"  horiz-adv-x="1024" />

    
    <glyph glyph-name="icon_zhongzhishouqua" unicode="&#59138;" d="M417.6 339.456c-22.72 35.904-83.136 131.328-83.136 200.32 0 142.528 72.256 227.584 193.344 227.584s193.472-85.12 193.472-227.584a32 32 0 0 1 64 0c0 179.84-98.624 291.584-257.408 291.584-158.72 0-257.344-111.744-257.344-291.584 0-87.488 65.216-190.592 93.056-234.56 4.096-6.528 7.232-11.328 8.704-14.08 3.328-6.208 2.752-7.744 2.56-8.512-0.512-1.472-6.016-15.104-48-35.136-75.712-36.16-168.896-73.28-168.832-73.28-54.848-19.136-93.184-69.568-93.184-122.624v-19.776c0-60.928 49.024-105.152 116.544-105.152H401.28a32 32 0 0 1 0 64H181.376c-24.192 0-52.544 10.752-52.544 41.152v19.776c0 25.856 21.12 51.968 51.52 62.656a3255.552 3255.552 0 0 1 174.016 75.52c46.336 22.08 72.128 45.248 81.216 72.96 9.28 28.352-2.944 51.2-6.976 58.688a369.984 369.984 0 0 1-11.008 18.048zM736 416c-141.184 0-256-114.816-256-256s114.816-256 256-256 256 114.816 256 256-114.816 256-256 256z m192-256c0-44.992-16.256-85.952-42.24-118.72L625.28 316.288A190.464 190.464 0 0 0 736 352c105.856 0 192-86.144 192-192z m-384 0c0 41.408 13.504 79.616 35.968 110.976l258.432-272.832a190.08 190.08 0 0 0-102.4-30.208 192.32 192.32 0 0 0-192 192.064z"  horiz-adv-x="1024" />

    
    <glyph glyph-name="icon_tingyong" unicode="&#59139;" d="M512 320a32 32 0 0 1 32 32v448a32 32 0 0 1-64 0v-448A32 32 0 0 1 512 320zM692.928 752.576a32 32 0 0 1-27.968-57.6 354.24 354.24 0 0 0 199.04-317.056c0-194.112-158.016-352-352-352a352.384 352.384 0 0 0-352 352 353.792 353.792 0 0 0 201.792 318.464 32.064 32.064 0 0 1-27.328 57.92A418.176 418.176 0 0 1 96 377.92c0-229.376 186.624-416 416-416s416 186.624 416 416a418.496 418.496 0 0 1-235.072 374.656z"  horiz-adv-x="1024" />

    
    <glyph glyph-name="icon_xiujiatongji" unicode="&#59140;" d="M832 864H192A160.192 160.192 0 0 1 32 704v-640c0-88.256 71.808-160 160-160h640c88.256 0 160 71.744 160 160V704c0 88.192-71.744 160-160 160z m58.752-574.528a32 32 0 0 0-44.096 10.176l-22.08 35.328-83.968-210.624a32.32 32.32 0 0 0-22.592-19.328 31.744 31.744 0 0 0-28.672 7.488l-87.424 79.232-72.768-84.224a32 32 0 0 0-48.448 41.856l94.208 109.12a31.744 31.744 0 0 0 18.816 10.048c-54.208 31.168-56.576 68.288-48.768 94.144 2.816 9.152 9.024 19.072 19.456 35.52 19.776 31.168 52.8 83.328 52.8 123.328 0 45.12-12.16 150.08-124.864 150.08-112.704 0-124.864-104.96-124.864-150.08 0-45.632 40.96-110.912 56.384-135.552 3.84-6.144 6.656-10.688 8-13.248 8.768-16.448 10.624-32.832 5.44-48.64-7.04-21.952-26.624-40-61.312-56.64-54.464-26.24-118.976-52.16-121.728-53.248-17.856-6.336-29.824-20.864-29.824-35.136v-13.824c0-18.432 22.336-19.392 26.816-19.392h169.536a32 32 0 0 0 0-64H251.328c-52.608 0-90.816 35.072-90.816 83.392v13.824c0 41.28 29.312 80.32 71.296 94.976-0.064 0 64.256 25.856 116.48 51.008 24.448 11.776 28.416 19.328 28.48 19.392-2.304 0.128-4.352 3.328-6.976 7.552-19.84 31.552-66.24 105.408-66.24 169.536 0 130.048 74.112 214.08 188.864 214.08s188.864-84.032 188.864-214.08c0-58.56-39.296-120.576-62.72-157.568-6.016-9.344-10.88-16.576-12.8-21.12-1.6-5.376 10.432-13.632 20.864-19.456a32 32 0 0 0 12.288-43.584 31.424 31.424 0 0 0-23.424-15.488c1.664-1.088 3.648-1.664 5.12-3.072l77.632-70.336 59.2 148.48-22.4-14.016a32 32 0 0 0-33.856 54.272l85.248 53.312a44.672 44.672 0 0 0 61.12-13.952l53.376-85.44a32 32 0 0 0-10.176-44.096z"  horiz-adv-x="1024" />

    
    <glyph glyph-name="icon_xiujiatongji1" unicode="&#59141;" d="M786.432 433.024l-85.248-53.312a32 32 0 1 1 33.856-54.272l22.4 14.016-59.2-148.48-77.632 70.272c-1.472 1.408-3.392 1.984-5.12 3.072a31.744 31.744 0 0 1 23.424 15.488 32 32 0 0 1-12.288 43.584c-10.432 5.824-22.464 14.08-20.864 19.456 1.92 4.48 6.784 11.712 12.736 21.056 23.424 37.056 62.72 99.008 62.72 157.568 0 130.048-74.112 214.08-188.864 214.08s-188.8-83.968-188.8-214.016c0-64.064 46.4-137.984 66.24-169.536 2.688-4.224 4.672-7.424 6.976-7.552-0.064-0.064-4.032-7.616-28.48-19.392-52.224-25.152-116.544-51.008-116.48-51.008-41.984-14.656-71.296-53.76-71.296-94.976v-13.824c0-48.32 38.208-83.392 90.816-83.392h169.536a32 32 0 0 1 0 64H251.328c-4.48 0-26.816 0.96-26.816 19.392v13.824c0 14.272 11.968 28.8 29.824 35.136 2.688 1.088 67.264 27.008 121.728 53.248 34.688 16.704 54.208 34.688 61.376 56.704 5.184 15.808 3.328 32.192-5.44 48.64a268.672 268.672 0 0 1-8 13.248c-15.488 24.576-56.448 89.856-56.448 135.488 0 45.12 12.16 150.08 124.864 150.08 112.64 0 124.864-104.96 124.864-150.08 0-40-33.088-92.16-52.8-123.328-10.496-16.448-16.704-26.368-19.52-35.52-7.808-25.856-5.44-62.976 48.704-94.144a32.064 32.064 0 0 1-18.816-10.048L480.64 149.376a32 32 0 0 1 48.448-41.856l72.832 84.288 87.424-79.232c7.744-7.04 18.496-9.92 28.672-7.488a32.256 32.256 0 0 1 22.592 19.328l83.968 210.624 22.08-35.328a32 32 0 0 1 54.272 33.856l-53.376 85.44a44.608 44.608 0 0 1-61.12 14.016zM832 864H192A160.192 160.192 0 0 1 32 704v-640c0-88.256 71.808-160 160-160h640c88.256 0 160 71.744 160 160V704c0 88.192-71.744 160-160 160zM928 64c0-52.928-43.072-96-96-96H192c-52.928 0-96 43.072-96 96V704c0 52.928 43.072 96 96 96h640c52.928 0 96-43.072 96-96v-640z"  horiz-adv-x="1024" />

    
    <glyph glyph-name="icon_fabu" unicode="&#59142;" d="M928.938667 857.856L57.216 421.248c-42.069333-21.077333-41.770667-54.656 0.554667-75.050667l257.578666-124.117333 74.538667-267.946667c12.586667-45.312 50.389333-55.424 84.394667-22.442666l129.578666 125.568 240.341334-141.781334c40.576-23.978667 76.842667-5.504 80.853333 41.258667l72.832 854.656c3.968 46.933333-26.88 67.541333-68.949333 46.464z m-84.693334-843.434667l-197.077333 116.309334a85.290667 85.290667 0 0 1-102.741333-12.202667l-87.978667-85.290667-58.922667 211.669334a85.248 85.248 0 0 1-45.184 54.016l-177.792 85.674666 732.501334 366.933334-62.805334-737.109334zM547.072 236.501333a42.453333 42.453333 0 0 1 31.530667 13.909334l195.84 214.741333a42.666667 42.666667 0 0 1-63.061334 57.514667l-195.84-214.741334a42.666667 42.666667 0 0 1 31.530667-71.424z"  horiz-adv-x="1024" />

    
    <glyph glyph-name="icon_shenqing" unicode="&#59143;" d="M958.506667 326.741333l-51.285334 48.896a95.445333 95.445333 0 0 1-132.394666-1.450666l-242.346667-241.152c-29.824-29.696-46.762667-81.450667-40.277333-123.178667l9.045333-58.026667c3.242667-20.736 21.162667-36.096 42.154667-36.096h69.290666c39.253333 0 89.728 20.949333 117.290667 48.682667l93.184 93.184a42.624 42.624 0 1 1-60.330667 60.330667l-93.269333-93.226667c-11.605333-11.690667-40.32-23.637333-56.874667-23.637333h-32.768l-3.413333 21.930666c-2.261333 14.378667 5.930667 39.381333 16.128 49.536l242.389333 241.152a9.770667 9.770667 0 0 0 13.312 0.213334l51.285334-48.896c1.365333-1.28 2.090667-2.901333 2.133333-4.821334 0-1.450667-0.384-3.584-1.493333-4.693333l-36.224-34.346667-23.765334 22.912a42.666667 42.666667 0 0 1-59.264-61.397333l50.730667-48.981333a42.666667 42.666667 0 0 1 60.330667 1.109333c0.170667 0.170667 0.213333 0.384 0.384 0.554667a42.666667 42.666667 0 0 1 14.634666 9.088l52.693334 50.048c17.877333 17.877333 27.562667 41.642667 27.221333 66.816a91.008 91.008 0 0 1-28.501333 65.450666zM363.050667 0H207.530667A79.658667 79.658667 0 0 0 128 79.573333V688.426667C128 732.288 163.712 768 207.616 768h608.810667C860.288 768 896 732.330667 896 688.512v-205.909333a42.666667 42.666667 0 1 1 85.333333 0V688.512A165.077333 165.077333 0 0 1 816.426667 853.333333H207.616A165.12 165.12 0 0 1 42.666667 688.426667v-608.853334A165.077333 165.077333 0 0 1 207.530667-85.333333h155.52a42.666667 42.666667 0 1 1 0 85.333333zM749.696 554.666667a42.666667 42.666667 0 0 1-42.666667 42.666666h-426.666666a42.666667 42.666667 0 0 1 0-85.333333h426.666666a42.666667 42.666667 0 0 1 42.666667 42.666667zM280.362667 426.666667a42.666667 42.666667 0 0 1 0-85.333334h213.333333a42.666667 42.666667 0 1 1 0 85.333334h-213.333333z"  horiz-adv-x="1024" />

    
    <glyph glyph-name="icon_tuijian" unicode="&#59144;" d="M213.333333-85.333333H149.333333a128 128 0 0 0-128 127.616v344.576a127.786667 127.786667 0 0 0 127.658667 127.616h160.128c84.224 0 109.397333 30.72 134.784 164.266666l6.357333 34.261334C469.717333 819.242667 483.797333 896 595.157333 896c24.832 0 47.232-10.282667 64.768-29.738667 53.248-59.264 51.84-210.346667 46.677334-292.224h149.845333c34.730667 0 84.650667-4.053333 116.736-38.954666 23.509333-25.642667 32.853333-62.506667 28.416-112.810667-4.565333-53.973333-21.845333-79.872-35.584-100.693333-9.173333-13.781333-15.232-22.954667-18.346667-42.325334-2.816-17.322667 0.981333-26.794667 6.741334-41.088 8.576-21.333333 21.504-53.546667 0.170666-99.925333-19.498667-42.368-37.930667-56.021333-55.253333-64.981333l0.682667-4.352c3.328-24.405333 9.002667-65.237333-18.602667-98.517334-20.992-25.301333-54.826667-38.698667-103.338667-41.045333-130.517333-6.229333-359.466667-0.298667-369.109333-0.042667a42.666667 42.666667 0 0 0-41.514667 43.776c0.597333 23.552 20.565333 41.301333 43.776 41.557334 2.389333-0.085333 235.605333-6.229333 362.794667-0.042667 34.176 1.621333 41.429333 9.941333 41.770667 10.282667 3.584 4.352 1.066667 22.528-0.341334 32.341333-2.645333 19.541333-6.016 43.818667 9.514667 64.256 12.245333 16.128 25.429333 22.656 33.322667 26.538667 4.821333 2.432 9.002667 4.437333 18.816 25.856 6.016 13.013333 4.736 15.957333-1.834667 32.384-7.338667 18.218667-18.432 45.738667-11.818667 86.442666 6.016 37.674667 20.096 58.922667 31.402667 76.032 11.008 16.597333 18.986667 28.544 21.76 60.842667 2.816 32.512-2.730667 43.904-6.314667 47.786667-3.84 4.224-16 11.306667-53.845333 11.306666h-243.669333l4.992 47.189334c14.848 139.136-0.256 262.058667-23.168 274.986666-35.84-0.170667-39.68-0.170667-60.416-113.194666l-6.4-34.816c-23.381333-123.136-57.685333-233.685333-218.624-233.685334H148.992a42.368 42.368 0 0 1-42.325333-42.282666v-344.576c0-23.338667 19.157333-42.282667 42.666666-42.282667H213.333333l-0.085333 270.848a42.666667 42.666667 0 1 0 85.333333 0v-271.189333A85.205333 85.205333 0 0 0 213.333333-85.333333z"  horiz-adv-x="1024" />

    
    </font>
</defs>
</svg>
